/* XPM */
static char *d99fa432d2734da5c748e87cce8e7631o6iNLGKllOf2VUXO[] = {
/* columns rows colors chars-per-pixel */
"64 64 126 2 ",
"   c #FBDC75",
".  c #F7D04B",
"X  c #F1CF6E",
"o  c #AA773B",
"O  c #F7CE46",
"+  c #A06A34",
"@  c #FBDA70",
"#  c #7C512B",
"$  c #FCDD76",
"%  c #F8CF46",
"&  c #7B502B",
"*  c #9F6934",
"=  c #E9C043",
"-  c #9F6933",
";  c #EDC344",
":  c #8A5F2E",
">  c #FBDB70",
",  c #EDCC6D",
"<  c #8A6133",
"1  c #7B502A",
"2  c #80542C",
"3  c #A06934",
"4  c #AA7536",
"5  c #9C6733",
"6  c #9B6633",
"7  c #AA7636",
"8  c #F8D04B",
"9  c #CD8E44",
"0  c #ECCC6D",
"q  c #F2C645",
"w  c #F3C84B",
"e  c #F8D04C",
"r  c #8E6334",
"t  c #7F532B",
"y  c #EDC449",
"u  c #7F532C",
"i  c #F7CF4B",
"p  c #FBDC76",
"a  c #7B512B",
"s  c #A7743A",
"d  c #F0CF6D",
"f  c #C88644",
"g  c #C78544",
"h  c #AB773B",
"j  c #9B6632",
"k  c #F0CE69",
"l  c #AA7637",
"z  c #FAD86B",
"x  c #D29645",
"c  c #8E622F",
"v  c #A67335",
"b  c #EDC244",
"n  c #8A6033",
"m  c #EECE6E",
"M  c #F8D046",
"N  c #CE8F44",
"B  c #BF7F41",
"V  c #85582E",
"C  c #F2C746",
"Z  c #EEC344",
"A  c #A57235",
"S  c #E8BB44",
"D  c #F3C746",
"F  c #EDCB68",
"G  c #A67336",
"H  c #EAC143",
"J  c #895E2E",
"K  c #7A4F2A",
"L  c #F9DA74",
"P  c #976F3B",
"I  c #E4B843",
"U  c #C48741",
"Y  c #85572E",
"T  c #AB773C",
"R  c #885E2E",
"E  c #FAD96B",
"W  c #F7CE47",
"Q  c #FBDC74",
"!  c #F8D150",
"~  c #C88A42",
"^  c #A56D36",
"/  c #F7CE45",
"(  c #C38242",
")  c #F1D06E",
"_  c #A6733A",
"`  c #A67235",
"'  c #895A2F",
"]  c #C58841",
"[  c #84572E",
"{  c #E4B842",
"}  c #85582D",
"|  c #F9D046",
" . c #DDB340",
".. c #A97436",
"X. c #A56E36",
"o. c #CE8E44",
"O. c #7E532B",
"+. c #FCDE76",
"@. c #E7C367",
"#. c #8C602F",
"$. c #8D612F",
"%. c #E5B943",
"&. c #A26C35",
"*. c #CD8F4A",
"=. c #FBDD75",
"-. c #A16A34",
";. c #9A6632",
":. c #F7CF46",
">. c #EECE6D",
",. c #F9D96F",
"<. c #F7CE4B",
"1. c #976D36",
"2. c #EBC349",
"3. c #FBDD76",
"4. c #FAD970",
"5. c #F6D36F",
"6. c #F5D26F",
"7. c #F0CD69",
"8. c #F2C646",
"9. c #F5D270",
"0. c #F5D26B",
"q. c #D39749",
"w. c #D3974A",
"e. c #F8D14C",
"r. c #EAC148",
"t. c #8E6230",
/* pixels */
"# # # # # # # 2 5 + + 5 2 # # # # # # 2 5 + + + + + + 5 2 # # # # # # # # # # # # # # 2 5 + + + + + + 5 2 # # # # # # # # # # # ",
"# # # # # # # 2 5 + + 5 2 # # # # # # 2 5 + + + + + + 5 2 # # # # # # # # # # # # # # 2 5 + + + + + + 5 2 # # # # # # # # # # # ",
"# # # # & & & u 6 3 3 6 u & & & & & & u 5 + + + * * 3 6 u & & & & & & & a a a a & & & u 6 3 * * * * 3 6 u & & & & & & & # # # # ",
"# # # O.R : : c v 7 7 v c : : : : : : $.&.^ ^ X...4 7 v c : : : : : : J V Y Y V J : : c v 7 4 4 4 4 7 v c : : : : : : R O.# # # ",
"# # & R  .H = = b ; ; b = = = = = = = %.~ ( ( ~ S ; ; b = = = = = = = I U B B U I = = = b ; ; ; ; ; ; b = = = = = = H  .R & # # ",
"# # & : H | % % % % % % % % % % % % M D N f f o.C % % % % % % % % % M D N f f N D M % % % % % % % % % % % % % % % % | H : & # # ",
"# # & : = % O O O O O O O O O O O O O q 9 g g 9 q O O O O O O O O O O q 9 g g 9 q O O O O O O O O O O O O O O O O O % = : & # # ",
"# # & : = % O W i . . . . . . . . . 8 w x 9 9 x w 8 . . . . . . . . 8 w x 9 9 x w 8 . . . . . . . . . . . . . i W O % = c u 2 2 ",
"# # & : = % O i E > @ @ @ @ @ @ @ @ > z w q q w z > @ @ @ @ @ @ @ @ > z w q q w z > @ @ @ @ @ @ @ @ @ @ @ @ > E i O % b v 6 5 5 ",
"# # & : = % O . > p                 p > 8 O O 8 > p                 p > 8 O O 8 > p                         p > . O % ; 7 3 + + ",
"# # & : = % O . @       $ $ $ $ $ $ $ > e % % e > $ $ $ $ $ $ $ $ $ $ > e % % e > $ $ $ $ $ $ $ $ $ $ $       @ . O % ; 4 * + + ",
"# # & : = % O . @     L m 0 0 , d X X k y ; ; y F , , , , , , , , , , F y ; ; y k X X X X X X d , 0 0 m L     @ . O % ; 4 * + + ",
"# # & : = % O . @   $ m P n < r s h o o l 4 7 G r < < < < < < < < < < r G 7 4 l o o o o o o h s r < n P m $   @ . O % ; 4 * + + ",
"# # & : = % O . @   $ 0 n K 1 t j 3 - * * * 3 6 t 1 1 1 1 1 1 1 1 1 1 t 6 3 * * * - - - - - 3 j t 1 K n 0 $   @ . O % ; 4 * + + ",
"# # & : = % O . @   $ 0 < 1 a 2 6 3 * * * - 3 j t 1 1 1 1 1 1 1 1 1 1 t j 3 - - - - - * * * 3 6 2 a 1 < , $ p > 8 O % ; 7 3 + + ",
"# # & : = % O . @   $ , r t 2 } A 7 4 l o o h s r < < < < < < < < < < r s h o o o o o o l 4 7 A } 2 t r F > > z w q C S ` 6 5 5 ",
"# # & : = % O . @   $ d s j 6 A { Z ; y k X X d , 0 , , , , , , , , 0 , d X X X X X X k y ; Z { A 6 6 G y e 8 w x 9 N ] ' u 2 2 ",
"# # & : = % O . @   $ X h 3 3 7 Z M % e > $ $ $ $ $ $ $ $ $ $ $ $ $ $ $ $ $ $ $ $ $ $ > e % M Z 7 3 3 7 ; % O q 9 g f B [ & # # ",
"# # & : = % O . @   $ X o - * 4 ; % / i @                                             @ i / % ; 7 3 3 7 ; % O q 9 g f B Y a # # ",
"2 2 u c = % O . @   $ X o - * l y e i ! >                                             > ! i e y G 6 6 G y e 8 w x 9 N U V a # # ",
"5 5 6 v b % O . @   $ X o - * o k > @ > Q                                             Q > @ > F r t t r F > > z w q D I J & # # ",
"+ + 3 7 ; % O . @   $ X o - - o X $                                                         $ , < 1 1 < , $ p > 8 O M = : & # # ",
"+ + * 4 ; % O 8 > p $ X o - - o X $             $ $ $ $ $ $ $ $ $ $ $ $ $ $ $ $             $ , < 1 1 < , $   @ . O % = : & # # ",
"+ + * ..S C q w z > > k o * - o X $           L m 0 0 , d X X X X X X d , 0 0 m L           $ , < 1 1 < , $   @ . O % = c u 2 2 ",
"+ + + X.~ o.9 x w 8 e y l * - o X $         $ m P n < r s h o o o o h s r < n P m $         $ , < 1 1 < , $   @ . O % b v 6 5 5 ",
"+ + + ^ ( f g 9 q O % ; 4 * - o X $         $ 0 n K 1 t j 3 - - - - 3 j t 1 K n 0 $         $ , < 1 1 < , $   @ . O % ; 7 3 + + ",
"+ + + ^ ( f g 9 q O % ; 7 3 3 h X $         $ 0 < 1 a 2 6 3 - - - - 3 6 2 a 1 < 0 $         $ , < 1 1 < , $   @ . O % ; 4 * + + ",
"5 5 5 &.~ N 9 x w 8 e y G 6 j s d $         $ , r t 2 V _ T o o o o T _ V 2 t r , $         $ , < 1 1 < , $   @ . O % ; 4 * + + ",
"2 2 u $.%.D q w z > > F r t t r , $         $ d s j 6 _ @.) X X X X ) @._ 6 j s d $         $ , < 1 1 < , $   @ . O % ; 4 * + + ",
"# # & : = M O 8 > p $ , < 1 1 < 0 $         $ X h 3 3 T ) +.$ $ $ $ +.) T 3 3 h X $         $ , < 1 1 < , $   @ . O % ; 4 * + + ",
"# # & : = % O . @   $ , < 1 1 < , $         $ X o - - o X $         $ X o - - o X $         $ , < 1 1 < , $ p > 8 O % ; 7 3 + + ",
"# # & : = % O . @   $ , < 1 1 < , $         $ X o - - o X $   Q > @ > k o * - o X $   Q > @ > F r t t r F > > z w q C S ` 6 5 5 ",
"# # & : = % O . @   $ , < 1 1 < , $         $ X o - - o X $   > ! i e y l * - o X $   > ! i e y G 6 6 G y e 8 w x 9 N ] ' u 2 2 ",
"# # & : = % O . @   $ , < 1 1 < , $         $ X o - - o X $   @ i / % ; 4 * - o X $   @ i / % ; 7 3 3 7 ; % O q 9 g f B [ & # # ",
"# # & : = % O . @   $ , < 1 1 < , $         $ X h 3 3 T ) +.$ > e % M Z 7 3 3 h X $   @ . O % ; 4 * * 4 ; % O q 9 g f B Y a # # ",
"2 2 u c = % O . @   $ , < 1 1 < , $         $ d s j 6 _ @.) X k y ; Z { A 6 j s d $   @ . O % ; 4 * * l y e 8 w x 9 N U V a # # ",
"5 5 6 v b % O . @   $ , < 1 1 < , $         $ , r t 2 V _ T o o l 4 7 A } 2 t r , $   @ . O % ; 4 * * o k > > z w q D I J & # # ",
"+ + 3 7 ; % O . @   $ , < 1 1 < , $         $ 0 < 1 a 2 6 3 - * * * 3 6 2 a 1 < 0 $   @ . O % ; 4 * - o X $ p > 8 O M = : & # # ",
"+ + * 4 ; % O 8 > p $ , < 1 1 < 0 $         $ 0 n K 1 t j 3 - - - - 3 j t 1 K n 0 $   @ . O % ; 4 * - o X $   @ . O % = : & # # ",
"+ + * ..S C q w z > > F r t t r , $         $ m P n < r s h o o o o h s r < n P m $   @ . O % ; 4 * - o X $   @ . O % = c u 2 2 ",
"+ + + X.~ o.9 x w 8 e y G 6 j s d $           L m 0 0 , d X X X X X X d , 0 0 m L     @ . O % ; 4 * - o X $   @ . O % b v 6 5 5 ",
"+ + + ^ ( f g 9 q O % ; 7 3 3 h X $             $ $ $ $ $ $ $ $ $ $ $ $ $ $ $ $       @ . O % ; 4 * - o X $   @ . O % ; 7 3 + + ",
"+ + + ^ ( f g 9 q O % ; 4 * - o X $                                                 p > . O % ; 4 * - o X $   @ . O % ; 4 * + + ",
"+ + + X.~ o.9 x w 8 e y l * * o k > @ > Q                                     Q > @ > E i O % ; 4 * - o X $   @ . O % ; 4 * + + ",
"+ + * ..S C q w z > > k o * * l y e i ! >                                     > ! i . i W O % ; 4 * - o X $   @ . O % ; 4 * + + ",
"+ + * 4 ; % O 8 > p $ X o - * 4 ; % / i @                                     @ i / O O O O % ; 4 * - o X $   @ . O % ; 4 * + + ",
"+ + 3 7 ; % O . @   $ X h 3 3 7 Z M % e > $ $ $ $ $ $ $ $ $ $ $ $ $ $ $ $ $ $ > e % % % % % M Z 7 3 3 T X $ p > 8 O % ; 7 3 + + ",
"5 5 6 v b % O . @   $ d s j 6 A { Z ; y k X X X X X X X X X X X X X X X X X X k y ; ; ; ; ; Z { A 6 6 s 7.> > z w q C S ` 6 5 5 ",
"2 2 u c = % O . @   $ , r t 2 } A 7 4 l o o o o o o o o o o o o o o o o o o o o l 4 4 4 4 4 7 A } 2 u t.r.e.8 w x 9 N ] ' u 2 2 ",
"# # & : = % O . @   $ 0 < 1 a 2 6 3 * * * - - - - - - - - - - - - - - - - - - * * * * * * * 3 6 2 a & : = % O q 9 g f B [ & # # ",
"# # & : = % O . @   $ 0 n K 1 t j 3 - - - - - * * * * * * - - - - - - - - - - * * * * * * - 3 j t 1 K J = % O q 9 g f B Y a # # ",
"# # & : = % O . @   $ m P n < r s h o o o o o o l 4 4 l o o o o o o o o o o o o l 4 4 l o o h s r < n 1.2.e 8 w x 9 N U V a # # ",
"# # & : = % O . @     L m 0 0 , d X X X X X X k y ; ; y k X X X X X X X X X X k y ; ; y k X X d , 0 0 >.,.> > z w q D I J & # # ",
"# # & : = % O . @       $ $ $ $ $ $ $ $ $ $ $ > e % % e > $ $ $ $ $ $ $ $ $ $ > e % % e > $ $ $ $ $ $ $     p > 8 O M = : & # # ",
"# # & : = % O . > p                     =.=.3.> 8 O O . > p                 p > 8 O O 8 > p                 p > . O % = : & # # ",
"# # & : = % O i E > @ @ @ @ @ @ @ @ @ 4.5.6.9.0.<.O O i E > @ @ @ @ @ @ @ @ > z w q q w z > @ @ @ @ @ @ @ @ > E i O % = : & # # ",
"# # & : = % O W i . . . . . . . . . 8 w w.*.*.q.C O O W i . . . . . . . . . 8 w x 9 9 x w 8 . . . . . . . . . i W O % = : & # # ",
"# # & : = % O O O O O O O O O O O O O q 9 g g 9 8.:.O O O O O O O O O O O O O q 9 g g 9 q O O O O O O O O O O O O O % = : & # # ",
"# # & : H | % % % % % % % % % % % % % C N f f N D M % % % % % % % % % % % % % C N f f N D M % % % % % % % % % % % % | H : & # # ",
"# # & R  .H = = = = = = b ; ; ; ; ; ; S ] B B U I = = = = = = = b ; ; ; ; ; ; S ] B B U I = = = b ; ; b = = = = = = H  .#.u 2 2 ",
"# # # O.R : : : : : : c v 7 4 4 4 4 7 ` ' [ Y V J : : : : : : c v 7 4 4 4 4 7 ` ' [ Y V J : : c v 7 7 v c : : : : : : #.;.5 5 5 ",
"# # # # & & & & & & & u 6 3 * * * * 3 6 u & a a & & & & & & & u 6 3 * * * * 3 6 u & a a & & & u 6 3 3 6 u & & & & & & u 5 -.+ + ",
"# # # # # # # # # # # 2 5 + + + + + + 5 2 # # # # # # # # # # 2 5 + + + + + + 5 2 # # # # # # 2 5 + + 5 2 # # # # # # 2 5 + + + ",
"# # # # # # # # # # # 2 5 + + + + + + 5 2 # # # # # # # # # # 2 5 + + + + + + 5 2 # # # # # # 2 5 + + 5 2 # # # # # # 2 5 + + + "
};
