/* XPM */
static char *_062a9c4883b4bbdb8df08d5ff2a8535kggdPNfi5jqx96O9[] = {
/* columns rows colors chars-per-pixel */
"64 64 232 2 ",
"   c #040100",
".  c #0C0301",
"X  c #0C0B04",
"o  c #080B06",
"O  c #130403",
"+  c #140906",
"@  c #17110C",
"#  c #241815",
"$  c #27160E",
"%  c #3C3733",
"&  c #5D331C",
"*  c #69361E",
"=  c #5D3D2E",
"-  c #5D3825",
";  c #463C37",
":  c #5F3F31",
">  c #46382F",
",  c #633D2C",
"<  c #643B26",
"1  c #7D3D28",
"2  c #623F32",
"3  c #5E4032",
"4  c #4F423A",
"5  c #65412E",
"6  c #6B432D",
"7  c #7F432D",
"8  c #75482E",
"9  c #654434",
"0  c #694435",
"q  c #6B4934",
"w  c #654539",
"e  c #694638",
"r  c #6A493A",
"t  c #664838",
"y  c #764E34",
"u  c #7A4933",
"i  c #775237",
"p  c #795645",
"a  c #7A5B4A",
"s  c #755649",
"d  c #6C5651",
"f  c #7D624F",
"g  c #7F6351",
"h  c #494440",
"j  c #813E2B",
"k  c #82442E",
"l  c #89462D",
"z  c #844531",
"x  c #854934",
"c  c #8A4935",
"v  c #894A36",
"b  c #8B5E3A",
"n  c #89543C",
"m  c #99563A",
"M  c #914D30",
"N  c #A45C38",
"B  c #8E603E",
"V  c #AD653B",
"C  c #AE693C",
"Z  c #AB6435",
"A  c #B1663D",
"S  c #B26B3E",
"D  c #B6703F",
"F  c #815C46",
"G  c #845E4C",
"H  c #8B5844",
"J  c #995743",
"K  c #825F51",
"L  c #A35A43",
"P  c #866446",
"I  c #8F6444",
"U  c #84604D",
"Y  c #8A6248",
"T  c #89634C",
"R  c #816251",
"E  c #856653",
"W  c #816554",
"Q  c #846453",
"!  c #896753",
"~  c #876956",
"^  c #876954",
"/  c #896855",
"(  c #8B6953",
")  c #8A6D5B",
"_  c #8B6C5B",
"`  c #876859",
"'  c #946D56",
"]  c #8D705E",
"[  c #966B50",
"{  c #B26641",
"}  c #B36A43",
"|  c #B5634D",
" . c #B66D4A",
".. c #BB7145",
"X. c #BB734D",
"o. c #B67149",
"O. c #B56C51",
"+. c #BC6D52",
"@. c #B56A56",
"#. c #BE7252",
"$. c #BF745F",
"%. c #AB6B49",
"&. c #A47E69",
"*. c #967765",
"=. c #C4764B",
"-. c #C5794D",
";. c #CB7B4C",
":. c #C77646",
">. c #D27D4B",
",. c #C16E53",
"<. c #C37254",
"1. c #C47B51",
"2. c #CA7B51",
"3. c #C47759",
"4. c #D4785F",
"5. c #D27A58",
"6. c #D67A61",
"7. c #DC7B64",
"8. c #E07D66",
"9. c #A88776",
"0. c #B58A75",
"q. c #B18A73",
"w. c #8D806D",
"e. c #CA845A",
"r. c #D28554",
"t. c #DB8D56",
"y. c #D5895B",
"u. c #DB8E5C",
"i. c #D4875A",
"p. c #DE915D",
"a. c #D4844F",
"s. c #E5975B",
"d. c #EA9451",
"f. c #C98766",
"g. c #DF8167",
"h. c #D58B65",
"j. c #DD9262",
"k. c #DD936A",
"l. c #D89669",
"z. c #C68E73",
"x. c #C89175",
"c. c #DC9A7D",
"v. c #DA9872",
"b. c #E29463",
"n. c #E99D63",
"m. c #E69E6D",
"M. c #E79A68",
"N. c #E39D74",
"B. c #EC9D74",
"V. c #E39F7A",
"C. c #E99E7B",
"Z. c #F09D73",
"A. c #DDA47A",
"S. c #EBA26A",
"D. c #EAA268",
"F. c #E3A176",
"G. c #ECA275",
"H. c #E4A17B",
"J. c #EAA47D",
"K. c #EBA97D",
"L. c #F2A47A",
"P. c #F1A267",
"I. c #AA8C80",
"U. c #B99787",
"Y. c #DE9E82",
"T. c #E59E80",
"R. c #DCA789",
"E. c #DCAC95",
"W. c #D9AB96",
"Q. c #DEB59A",
"!. c #E5A483",
"~. c #EAA582",
"^. c #E3AA85",
"/. c #ECA984",
"(. c #E4AC8C",
"). c #EBAD8A",
"_. c #E2A789",
"`. c #F1A882",
"'. c #EDB18D",
"]. c #F1B28C",
"[. c #F6B285",
"{. c #E4AE93",
"}. c #E6AE98",
"|. c #E5B395",
" X c #E3B59A",
".X c #E9B69B",
"XX c #E5BA9C",
"oX c #EBBA9C",
"OX c #EAB393",
"+X c #F3BB9D",
"@X c #F5B996",
"#X c #E7BDA2",
"$X c #EBBCA3",
"%X c #ECBEAB",
"&X c #E5BAA8",
"*X c #F2BDA5",
"=X c #F3BAA6",
"-X c #E7BFB3",
";X c #C6B0A3",
":X c #E8C29E",
">X c #EAC2A5",
",X c #E6C4AB",
"<X c #EBC4AC",
"1X c #EECAAE",
"2X c #E6C1A6",
"3X c #F3C2A3",
"4X c #F3C4AB",
"5X c #FCC5AD",
"6X c #F2C9AE",
"7X c #FFC9A7",
"8X c #EBC4B1",
"9X c #E3C9B2",
"0X c #EDC9B2",
"qX c #EBCDBB",
"wX c #E5C2B1",
"eX c #F3C5B4",
"rX c #F2CCB2",
"tX c #FAC8B5",
"yX c #F4D1B4",
"uX c #F9D4B9",
"iX c #C8C5C3",
"pX c #EDD6C1",
"aX c #EDDDC7",
"sX c #F1D5C3",
"dX c #F8D7C8",
"fX c #F3D6D0",
"gX c #F2CEC0",
"hX c #F7E6D8",
"jX c #F6E4CE",
"kX c #FEFEFD",
"lX c #F7F7F3",
"zX c #F6F2EF",
/* pixels */
"g f f f f f g R W W W W W W Q R G G G G G G G G p p p p p p p p r 9 9 9 9 9 9 w w w w w w w w w 9 0 q q 9 9 w w w 9 3 = : 3 3 3 ",
"f f f f f f g R W R g W W W R R G G G G T G G G p p p p p p p p 0 0 9 0 0 0 0 0 0 0 0 0 0 0 0 0 9 9 9 9 9 0 9 w w 9 3 3 3 3 3 3 ",
"f f f f f g R R R R g W W W R R G G G G T G G G p p p p p p p p 0 0 9 0 0 0 9 0 9 9 9 9 9 9 9 9 w 9 9 9 9 t 9 9 w 9 3 3 3 3 3 3 ",
"f f f f f g R R R R R R R Q R Q G G G G T G G G s s s s s s s s r 9 9 9 e 9 9 9 w w w w w w w w w w w w w 9 9 9 9 9 : = : : : : ",
"f f f f f f R R R R R R R Q R G G G G G T G G G p p p p p p p p t w w w w w w w w w w w w w w w 9 w w r t 9 9 9 9 9 : = : : : : ",
"f f f f f R R R Q R R R R R Q G G G G G T G G G p p p p p p p p t 9 9 9 9 9 9 9 9 9 9 9 9 9 9 9 9 9 9 e 9 9 9 q 9 9 : = : : : : ",
"W E E E E E Q Q E Q Q W E E Q Q G G G G T G G G F F F F F F F F i y y y i y y y y y y y y y y y i q 5 0 0 9 9 0 9 9 9 2 2 2 9 2 ",
"_ _ _ _ _ ` ` ` / ~ ~ ~ / / ! ! G G G G T G G G T T T T T T T T I B b B B B B B B B B B B B B B P i 6 9 e 0 0 0 9 9 9 9 2 9 9 9 ",
") _ _ ~ _ ] _ E ^ / / ^ / / ^ U U U U U U U T T Y Y Y Y Y Y Y Y b b b b b b b b b b b b b b b b b q 9 w w 9 0 0 0 5 9 e 9 9 2 0 ",
") _ _ _ _ _ _ _ Q ~ ~ Q Q ~ Q U G G U U U U U U Y Y Y Y Y Y Y Y b b b b b b b b b b b b b b b b b y 9 w 9 0 0 0 0 , = : 9 9 9 9 ",
"_ ~ ~ _ ] _ ~ Q Q / / ! / / E Q G G G G U U U U P P P P P P P P b b b b b b b b b b b b b b b b b 8 , 0 0 0 0 0 0 r r w 9 9 9 5 ",
") ` ~ ` _ ] _ ~ ! / ` / ` ` ! Q G G G G G G G G P P P P P P P P b b b b b b b b b b b b b b b b b y 5 e 9 9 9 w 2 9 w 3 : 9 9 9 ",
"` _ ] ~ W ` ] ] Q ! / ! ! / Q U U U U U U U T T Y Y Y Y Y Y Y Y b b b b b b b b b b b b b b b b P y 9 w w t t w r 0 2 : 9 9 9 5 ",
"_ _ _ _ _ _ E a ! / / ! / ( ! T G G G U U U U U Y Y Y Y Y Y Y Y b b b b b b b b b b b b b b b b F q 2 9 9 9 0 9 , 5 0 e w 9 9 9 ",
"] E E _ ] _ _ *.( ' ' ( ' ' ( ( ! ! ! ! ! ! ! ! ( ( ( ( ( ( ( ( I I I I I I I I I I I I I I I I I y 0 8 8 8 y 8 y 6 , , 9 = 9 e ",
"~ W _ _ a a 9.wX,X<X<X,X<X<X,X2X,X,X,X,X<X<X<X<X9X9X9X9X9X9X9X9X>X>X>X>X>X>X>X>X>X>X>X>X>X>X>X>X3XE.R.R.R.R.R.R. X&.6 - 9 0 2 , ",
"` E Q Q E G 9.dXyXyXyXyXyXyXyXyXyXyXyXyXyXuXuXuXsXsXsXsXsXsXsXsXrXrXrXrXrXrXrXrXrXrXrXrXrXrXrXrXrXoX'.].].OX'.'.+Xz.- = , , 5 , ",
"` E ( / ` K &.yXrXrXrXrXrXrXrXrXyXyXyXyXyXyXyXyXpXpXpXpXpXpXpXpX1X1X1X1X1X1X1X1X1X1XrXrXrXrXrXrXrXoX).].'.'.'.).@Xz.< 5 5 , < - ",
"` Q U Q E Q 9.uXrXrXrXrXyXyXrXrXyXyXyXyXyXyXyXyXpXpXpXpXpXpXpXpX0X0X0XrXrXrXrXrXrXrXrXrXrXrXrXrXrXoX).].'.'.'.).].0.& , < < 6 6 ",
"` E Q Q ` Q 9.uXrXrXyXrXyXyXyXyXyXyXyXyXyXyXyXyXpXpXpXpXpXpXpXpXrXrXrXrXrXrXrXrXrXrXrXrXrXrXrXrXrXoX).].'.'.'.).@Xz.< , , < , , ",
"Q E / ! ` R 9.yXrXrXrXrXrXrXrXrXrXrXrXyXyXyXrXrXpXpXpXpXpXpXpXpX1X1X1X0X6X6X6X6X1X1XrXrXrXrXrXrXrXoX).].'.'.'.).@X0.- 9 5 , , - ",
"` ` ( Q E E 9.uXrXrXrXrXrXrXrXrXyXyXyXyXyXyXyXyXpXpXpXpXpXpXpXpXrXrXrXrXrXrXrXrXrXrXrXrXrXrXrXrXrXoX'.].].OX'.'.+Xz.- 5 , 5 6 9 ",
"E R a p R K 9.0XyXyXrXrXrXrXyXyXyXyXyXyXyXyXyXyXsXsXsXsXsXsXsXsXrXrXrXrXrXrXrXrXrXrXrXrXrXrXrXrXrXoX).].].'.'.'.].f.& < & & & < ",
"I.0.q.0.U.0.U.uX0X0X0XrXrXrXrXrX1X1X1X1X1X1X0X0XqXqXqXqXqXqXqXqX>X>X>X>X>X>X>X>X1X1X1X1X1X1X1X1X1X|././.).(.)./.[.v.b ' [ [ [ [ ",
"rXrXyXrX0X0X0XrX0X0X0X0X0XeX1X>X#X#X#X#X#X#X#X#X8X8X8X8X8X8X8X8XoX.X.X.X.X.X.X.X$X4X6X<X1X6X1X1X4XR.F.m.N.F.v.N.F.H.H.J.J.J.~.~.",
",X<X8X8X,X,X8X8X0X0X0X0X0XeX1X>X>X>X>X>X>X>X>X>X8X8X8X8X8X8X8X8XoX.X X.X.X.X.X.X$X6XrX6XrXrXrXrX4X^.F.m.N.F.v.N.N.N.N.V.N.V.V.V.",
",X,X,X,X,X,X8X8X0X0X0X0X0XrX1X>X#X#X#X#X#X#X#X#X8X8X8X8X8X8X8X8XoX.X.X.X.X.X.X.XXX4X6X<X1X6X1X6X6X^.F.m.N.F.N.F.N.N.N.N.N.N.N.V.",
"8X8X8X8X8X8X0X0X0X0X0X0X0XrX1X>X>X>X>X>X>X>X>X>X8X8X8X8X8X8X8X8XoX.X.X.X.X.X.X.X$X6X6X1X1XrXrXrX6X^.F.m.N.F.N.F.H.H.H.H.H.H.V.V.",
"8X8X8X,X,X<X8X0X0X0X0X0X0XrX1X>X#X#X#X#X#X>X>X>X8X8X8X8X8X8X8X8XoX.X.X.X.X.X.X.X$X4X6X<X1XrX6X6X6X^.F.m.N.H.N.F.F.F.F.N.V.V.V.V.",
"8X8X<X,X,X,X8X0X0X0X0X0X0XrX1X>X#X#X#X#X#X#X#X#X8X8X8X8X8X8X8X8XoX.X.X.X.X.X.X.X$X4X6X<X1X6X1X6X4X_.F.N.N.H.v.N.N.N.N.N.N.N.V.V.",
"0X0X8X<X,X8X0X0X0X0X0X0X0XrX1X>X>X>X>X>X>X>X>X>X8X8X8X8X8X8X8X8XoX.X.X.X.X.X.X.X$X6XrX6XrXrXrXrX4XR.F.F.F.H.N.F.F.F.F.V.V.V.H.H.",
",X8X,X,X,X8X0XrX0X0X0X0X0XrX1X>X X XQ.Q.Q. X X X8X8X8X8X8X8X8X8XoX.X.X.X.X.X.X.X X>X>X&X2X>X&X%X4XR.F.G.J.J.H.H.H.H.F.V.V.V.H.H.",
"8XeX0X9X0XeXfXkXlXkXkXkXkXkXkXh @ # $ $ # # @ d 5X$X*X*X*X*X*X*X>X>X<X>X<X<X>XyXU.+ # # # # # # + iXkXlXlXlXlXzXkXjXW.(.{.E.E.(.",
"8XeX0X8X0XeXfXkXkXkXkXkXkXkXkX;   . . . .   . > 5X$X*X*X*X4X*X*X<X>X1X<X<X<X>XuX9.  X . .     .   iXkXlXkXkXkXkXkXhXE.{.{.}.|.{.",
"8XeX0X8X0XeXfXkXkXkXkXkXkXkXkX% o X + X X X . 4 5X$X*X*X*X*X*X*X<X>X<X<X<X<X>XuX9.. @ . + X X +   iXkXkXkXkXkXkXkXhXE.{.{.}.}.{.",
"8XeX0X8X0XeXfXkXkXkXkXkXkXkXkX;   . . . .   . ; 5X$X*X*X*X*X*X*X<X>X<X<X<X<X>XuX9.  X . O . X +   iXkXkXkXkXkXkXkXhXE.(.{.E.}.{.",
"8XeX0X8X0XeXfXkXkXkXkXkXkXkXkX;   + O O + . . ; 5X$X*X*X*X4X*X*X1X<X1X<X<X<X<XuXI.. + O O . . O   iXkXkXkXkXkXkXkXhXE.{.|.}.}.{.",
"8XeX0X8X0XeXfXkXkXkXkXkXkXkXkX;   . O O + . . ; 5X$X*X*X*X*X*X*X<X>X1X>X<X<X>XyX9.. X O O . . O   iXkXkXkXkXkXkXkXhXE.{.{.E.}.{.",
"8XeX0X0X0XeXfXkXkXkXkXkXkXkXkX;   X O O X X . ; 5X$X*X*X*X*X$X*X<X>X1X<X<X<X>XyXI.  X . + X X +   iXkXlXkXkXkXkXkXhXW.{.{.E. X{.",
"0XtXrX0XrXeXfXkXkXkXkXkXkXkXkX%               > tX*X4X4X4X4X4X4X6X6X6X6X6X6X1XuXI.  o             iXkXkXkXkXkXkXkXhXQ.OX|. X X|.",
"oXoXoXoX+X+XeXdXjXaXjXjXaXhXaXw.s a a s f s K ! c.c.c.c.c.c.c.c.Y.Y.Y.Y.Y.Y.Y.c.0.F r a p p p a d ;XdXyXqXsXqX0X7X@Xc.v.v.k.N.k.",
"/.(._.!.~.!.{.%X=X}.}.=X.X}.tXtXqXdXsXgXdXqXtX8XO.O.O.O.O.O.O.O.O.O.O.O.O.O.O.O.x.4XuXuX6XuXrX1X@XL.d.d.n.s.d.d.A.l.-.=.-.=.-.=.",
"`././.~.K.J.).*X.X*X+X+X*XOX.X4X&X%X%X&XeX&X$XR.<.<.<.3.3.3.<.<.<.3.<.<.<.3.<.,.f.@X>X|. XoX(.oX+XK.s.s.n.j.j.D.D.p.;.;.>.;.>.;.",
"~./././.`.`.).*XXX6X:X X:X>X:XQ.%X%X%X&X%X4X4XE.+.+.+.,.,.,.+.+.,.<.,.,.,.<.,.,.v.@XOXoX5X3X|.3X XH.D.D.D.G.G.n.n.t.:.:.>.;.;.:.",
"~./.!./.`./.{.*XoXoX+X+XoXoX*X4X8X8X8X&X%X%XeXE.#.#.#.#.#.#.#.#.<.<.<.<.<.<.<.+.f.+XoX>X$X3XoXoX7XF.s.s.s.n.n.s.P.s.;.;.>.;.2.;.",
"/.).(.).)./.{.%X=X.X5X5X=X=X=X=X%X-X0X-X8X8XeXW.#.#.#.#.#.#.#.#.#.#.#.+.#.#.#.+.x.3X>X>X XoX>XXX$XA.D.S.D.l.m.D.n.t.:.=.;.-.;.:.",
"/./.!.!.~.~.(.$X>XXXoX|. X4X$X%X%X&X8X8X8X%XeXW.#.#.+.<.<.<.<.<.#.<.#.#.#.<.#.+.f.+XXX4X4X*X$XoX+XK.s.d.s.S.D.d.S.p.;.2.2.;.r.;.",
"K././././.~.).3X$XoX3XoX3X3X|.4XrX%X<X<X8X%XeXE.,.,.,.,.,.,.,.,.,.<.,.+.,.<.,.+.f.7XoXoX+X+XoX3X$X^.n.s.n.m.m.n.D.p.:.;.;.;.>.:.",
"`.~./././.).).].OX+XoX@X+XOX3X&X&X%X&XQ.%X$X}. X<.<.<.<.<.<.<.,.<.,.<.<.<.,.<.<.z.{.$X X$X|.oX X@XK.p.s.S.m.m.n.M.u.;.;.;.:.2.:.",
"C.H.H.H.H.!.!.~.J.~.H.H.J.V.c.@.x n H n H H v J 6.6.4.6.6.6.4.4.4.4.6.6.6.4.4.7.| m x x H z n n m e.b.s.u.j.j.t.b.y.=.=.=.=.=.=.",
"V.H.H.V.V.V.V.C.B.B.G.B.G.L.N.m 1 z x z x x k J 8.7.7.7.7.8.7.7.7.7.7.8.8.7.7.8.3.l 1 k v k k k 1 1.b.u.u.k.b.t.b.i.=.=.=.=.=.=.",
"H.H.!.!.V.V.C.C.M.B.L.Z.M.L.L.N k z x x z k j L 8.7.7.7.7.7.7.7.7.7.7.7.7.7.7.8.| l k z c x c k c 3.u.t.j.k.j.u.b.i.=.=.-.=.;.=.",
"V.H.H.!.H.C.C.C.Z.B.B.B.M.B.C.m x z x z c k k J 7.7.7.7.7.7.7.7.7.7.7.7.7.7.7.7.+.l z 7 1 k v k k 3.j.s.j.h.y.p.j.i.=.=.-.-.;.:.",
"V.V.V.V.H.C.C.B.L.N.C.G.B.L.~.m 7 7 z k x z k J g.7.7.6.7.7.7.7.7.7.7.7.7.6.7.g.$.k z u z z z k 1 e.M.u.b.k.j.p.j.i.=.-.-.=.;.=.",
"T.T.V.V.!.~.C.B.B.N.N.N.B.L.C.m 7 z z 7 z x k J 7.7.7.7.7.7.7.7.7.7.7.7.7.7.7.7.@.1 7 x v x 7 z k e.p.a.j.k.u.t.b.i.=.-.2.-.;.=.",
"~.T.V.V.V.V.C.N.M.G.G.m.M.G.C.m z x c z x k k J 8.7.7.7.7.7.7.7.7.7.7.7.7.7.7.8.@.l c 7 z z k x k e.b.t.b.j.y.s.j.i.=.-.1.=.-.=.",
"J.!.!.T.~.~.J.H.L.B.L.G.G.J.C.L 7 x x x x k z J g.g.g.g.g.g.g.g.g.g.g.g.g.g.g.g.@.v k c x x x 7 l 3.b.s.p.j.j.u.j.r.-.=.-.-.-.=.",
"h.h.f.f.h.h.f.e.y.e.h.i.r.y.h.m k x x x x k x n | | | | | | | | | | | | | | | | J z k c k z x k k #.i.r.r.r.i.r.r.-..... . .....",
"X.X.X.o.X.o.} C Z N V C Z V } l k x z z z z k c j j j j j j j j j j j j j j j j c j z c k k x k k  .2.:.=.-.2.=.;...A A { } A A ",
"X.X.X.X.X.X.o.S } C } } S C o.M k x k k z x k x x x x x x x x x x x x x x x x x z k c c k k x k k  .-.:.=.=.-.=.-...A V { A A A ",
"X.X.X.#.1.-...S C V { S C V %.M k x z k x x k z k k k k k k k k k k k k k k k k x z x x k x z k k  .2.:.;.1.1.=.2...} { { } } } ",
"o.o.o.o.X.X.} C S C } S D S } M 7 x x k x x x x k k k k k k k k k k k k k k k k x x z k z x x x k  .2.:.2.1.1.-.-...S A { } A A ",
"=.#.X.#.<.<.o.S C S } C S } } M k z x k x z z x k k k k k k k k k k k k k k k k z z k k x x z x k  .-.:.-.=.-.-.-...A A { } A A ",
"<.X.X.X.#.#. .A C } } C S S } M k c x k z x k x x x x x x x x x x x x x x x x x z z k z x k k z k  .-.:.=.=.-.;.-...S A } } A A "
};
