/* XPM */
static char *result[] = {
/* columns rows colors chars-per-pixel */
"32 32 128 2 ",
"   c #145E53",
".  c #146155",
"X  c #15675D",
"o  c #15695E",
"O  c #166C61",
"+  c #186D61",
"@  c #177166",
"#  c #1B7165",
"$  c #167268",
"%  c #18756C",
"&  c #1A7A6E",
"*  c #0F727A",
"=  c #10747C",
"-  c #267366",
";  c #277468",
":  c #2E746A",
">  c #267E72",
",  c #328478",
"<  c #117C81",
"1  c #1A8689",
"2  c #1B8D92",
"3  c #1B9394",
"4  c #1B959D",
"5  c #1A9D9C",
"6  c #2D848B",
"7  c #31848B",
"8  c #2D8E92",
"9  c #219799",
"0  c #1DAC9D",
"q  c #1C9BA0",
"w  c #249FA3",
"e  c #1BA6A1",
"r  c #1BABA5",
"t  c #1BADA9",
"y  c #1DB2AB",
"u  c #1FBEB1",
"i  c #22A2A5",
"p  c #2EA2A5",
"a  c #20B4AD",
"s  c #2BB4AF",
"d  c #23BDAD",
"f  c #2EBEAE",
"g  c #21B6B0",
"h  c #2DB5B0",
"j  c #21BDB2",
"k  c #32BDB6",
"l  c #49949A",
"z  c #1FC2B4",
"x  c #21C5B5",
"c  c #26C1B8",
"v  c #26CABA",
"b  c #2EC8BA",
"n  c #37C3B6",
"m  c #31CCBD",
"M  c #2CD0BF",
"N  c #27CAC2",
"B  c #2DD2C7",
"V  c #3DD3C2",
"C  c #3ED9C7",
"Z  c #3DDBCC",
"A  c #2EDDD4",
"S  c #3EE1CE",
"D  c #44D2C3",
"F  c #4FD2C5",
"G  c #40D9C7",
"H  c #43DBC9",
"J  c #4DDBC9",
"K  c #41E1CF",
"L  c #42E5D3",
"P  c #4DE5D4",
"I  c #43E9D5",
"U  c #4BEAD7",
"Y  c #45EDD8",
"T  c #54E9D7",
"R  c #53EEDB",
"E  c #5DEFDE",
"W  c #5EF0DD",
"Q  c #70EEDF",
"!  c #62F1DE",
"~  c #68F1DF",
"^  c #72EFE0",
"/  c #6CF1E0",
"(  c #72F1E2",
")  c #81D4C5",
"_  c #81DFCF",
"`  c #A7D7D2",
"'  c #A6DAD8",
"]  c #BFD9DC",
"[  c #81E0CF",
"{  c #84E4D2",
"}  c #8FE6D4",
"|  c #83ECDB",
" . c #90E6D4",
".. c #90ECDC",
"X. c #8FF0DF",
"o. c #ADE8DE",
"O. c #86F3E0",
"+. c #8BF5E3",
"@. c #8FF8E5",
"#. c #92F2E1",
"$. c #95F9E6",
"%. c #99FAE7",
"&. c #9DFAE8",
"*. c #BBEDE7",
"=. c #AFF5EB",
"-. c #A2FBE8",
";. c #ADFCEB",
":. c #B0F5EB",
">. c #BAF6EC",
",. c #B1FCEC",
"<. c #BDFCF1",
"1. c #C2DADD",
"2. c #C1EAE6",
"3. c #CBEBEA",
"4. c #D4EAEA",
"5. c #DCE9EB",
"6. c #CAF5F0",
"7. c #C7FDF3",
"8. c #CBFEF4",
"9. c #D3FDF6",
"0. c #DCFCF7",
"q. c #DCFFF9",
"w. c #E1ECED",
"e. c #E4FDF9",
"r. c #EAFEFB",
"t. c #F3FFFD",
"y. c #FCFFFF",
"u. c None",
/* pixels */
"u.u.u.u.u.u.u.u.u.u.u.u.u.u.u.u.u.u.u.u.u.u.u.u.u.u.u.u.u.u.u.u.",
"u.u.u.u.u.u.u.u.u.u.u.u.u.u.u.u.u.u.u.u.u.u.u.u.u.u.u.u.u.u.u.u.",
"u.u.u.u.u.u.u.u.u.u.u.u.u.u.u.u.u.u.u.u.u.u.u.u.u.u.u.u.u.u.u.u.",
"u.u.u.u.u.u.u.u.u.u.u.u.u.u.u.u.u.u.u.u.u.u.u.u.u.u.u.u.u.u.u.u.",
"u.u.u.u.u.u.u.u.u.u.u.u.* = * = * * * * u.u.u.u.u.u.u.u.u.u.u.u.",
"u.u.u.u.u.u.u.u.u.u.u.u.6 7 7 7 7 7 6 6 u.u.u.u.u.u.u.u.u.u.u.u.",
"u.u.u.u.u.u.u.u.u.u.* 6 1.5.5.5.5.5.*.' 6 = u.u.u.u.u.u.u.u.u.u.",
"u.u.u.u.u.u.u.u.u.u.6 l 4.r.e.r.t.r.q.*.8 < u.u.u.u.u.u.u.u.u.u.",
"u.u.u.u.u.u.u.u.* 6 1.4.Q E E / -.,.9.>.n 0 o   u.u.u.u.u.u.u.u.",
"u.u.u.u.u.u.u.u.6 l 3.9./ R R E &.;.8.>.V d & o u.u.u.u.u.u.u.u.",
"u.u.u.u.u.u.= 6 1.3./ / @.$.$.&.8.8.,.&.T S d 0 O . u.u.u.u.u.u.",
"u.u.u.u.u.u.* 7 5.e.W R -.,.-.;.9.9.;.&.R I B d O . u.u.u.u.u.u.",
"u.u.u.u.u.u.* 6 w.e.E E q.r.9.9.t.t.0.<.E Y I V +   u.u.u.u.u.u.",
"u.u.u.u.u.u.6 l 3.9./ ^ 9.e.7.8.r.r.9.<.T L I V & O u.u.u.u.u.u.",
"u.u.u.u.* 6 1.3.^ / 9.9.^ E E / -.;.;.#.k g v c e 3 O   u.u.u.u.",
"u.u.u.u.* 7 5.r.E E e.e.E Y R E %.-.-.#.s r z u t 0 o   u.u.u.u.",
"u.u.u.u.= 7 5.r.E E 8.7.W R +.%.-.-.-...p 5 j z t 5 X   u.u.u.u.",
"u.u.u.u.* 7 5.r.( Q :.:.! W %.-.-.-.%.| p 4 j u t 5 X   u.u.u.u.",
"u.u.u.u.* 7 5.y.r.6.F D O.&.-.-.-.%.! P i 4 r t t 5 X   u.u.u.u.",
"u.u.u.u.* 7 4.t.r.6.V m | +.X.X.#.| P C i q r t r 5 o   u.u.u.u.",
"u.u.u.u.* 6 2.9.( E U K k h h h s h a y j x z u 5 2 X   u.u.u.u.",
"u.u.u.u.= 6 ` o.T Y L Z y r t t t t t y u x z d 3 1 X . u.u.u.u.",
"u.u.u.u.u.u.: , H L j g x z z z z z z z t y x y $ X u.u.u.u.u.u.",
"u.u.u.u.u.u.  + G L a t z x z x z z x z t t b f +   u.u.u.u.u.u.",
"u.u.u.u.u.u.  # B A a t x x x x z z z z i s | _ -   u.u.u.u.u.u.",
"u.u.u.u.u.u.. @ c N t r c v v v m m m b a s Q ) ; . u.u.u.u.u.u.",
"u.u.u.u.u.u.u.u.+ % 3 i Z I I U | #.#.| n y > - u.u.u.u.u.u.u.u.",
"u.u.u.u.u.u.u.u.  X 1 9 V H H J {  . .[ c 0 O   u.u.u.u.u.u.u.u.",
"u.u.u.u.u.u.u.u.u.u.o o # # # # ; ; ; - + + u.u.u.u.u.u.u.u.u.u.",
"u.u.u.u.u.u.u.u.u.u.. . . . . . . .       . u.u.u.u.u.u.u.u.u.u.",
"u.u.u.u.u.u.u.u.u.u.u.u.u.u.u.u.u.u.u.u.u.u.u.u.u.u.u.u.u.u.u.u.",
"u.u.u.u.u.u.u.u.u.u.u.u.u.u.u.u.u.u.u.u.u.u.u.u.u.u.u.u.u.u.u.u."
};
