/* XPM */
static char *_35ba8290dc347cbd3ddcf7e7fb732e9Nr2zklFP3VIbhdzC[] = {
/* columns rows colors chars-per-pixel */
"64 64 164 2 ",
"   c None",
".  c #145E53",
"X  c #156357",
"o  c #15665B",
"O  c #15695E",
"+  c #166D62",
"@  c #1A6E62",
"#  c #187166",
"$  c #177368",
"%  c #1A756A",
"&  c #0D6F78",
"*  c #0F7179",
"=  c #11727A",
"-  c #236F63",
";  c #296F64",
":  c #237064",
">  c #2A7065",
",  c #257468",
"<  c #24786C",
"1  c #2A746A",
"2  c #2D7E72",
"3  c #127981",
"4  c #148085",
"5  c #1B898E",
"6  c #1B8C93",
"7  c #1C9196",
"8  c #1C939B",
"9  c #1B9B9D",
"0  c #278187",
"q  c #2C8087",
"w  c #278288",
"e  c #2C8289",
"r  c #288A8E",
"t  c #209598",
"y  c #1AA19E",
"u  c #219CA1",
"i  c #2B9DA2",
"p  c #1AA7A5",
"a  c #1AAAA7",
"s  c #1BADA9",
"d  c #1EB3A3",
"f  c #1EB1AC",
"g  c #1FBAAB",
"h  c #1FBFB2",
"j  c #21A0A3",
"k  c #2BA0A4",
"l  c #22B3AE",
"z  c #29B3AE",
"x  c #22BDAE",
"c  c #2CBFAF",
"v  c #21BEB2",
"b  c #2DBAB3",
"n  c #438F95",
"m  c #1FC3B4",
"M  c #20C5B5",
"N  c #26C7BB",
"B  c #2CC7B9",
"V  c #25C9B9",
"C  c #2ECBBB",
"Z  c #33CCBC",
"A  c #38CBBD",
"S  c #33C3B6",
"D  c #28CDC5",
"F  c #39CFC0",
"G  c #2AD2C9",
"H  c #3FD2C3",
"J  c #2BDBD3",
"K  c #2CE1D9",
"L  c #30E3D9",
"P  c #49D0C3",
"I  c #40DAC7",
"U  c #43DDCB",
"Y  c #4DDECC",
"T  c #45E5D3",
"R  c #4EE6D5",
"E  c #45E9D5",
"W  c #4BEAD6",
"Q  c #47EDD9",
"!  c #49EDD9",
"~  c #52EAD7",
"^  c #54EEDB",
"/  c #5CEFDD",
"(  c #55F0DC",
")  c #5DF0DC",
"_  c #60EFDD",
"`  c #6BEEDF",
"'  c #65F0DE",
"]  c #6DEFE0",
"[  c #6CF0E0",
"{  c #70F1E1",
"}  c #86D8CB",
"|  c #84DDD2",
" . c #AEDEDD",
".. c #B0D9D7",
"X. c #84E4D2",
"o. c #88E8D6",
"O. c #86EDDC",
"+. c #89EEDE",
"@. c #91E9D7",
"#. c #93E6D9",
"$. c #92EDDC",
"%. c #8AF0DF",
"&. c #8BF4E2",
"*. c #8FF8E5",
"=. c #93F3E2",
"-. c #98F3E3",
";. c #97F9E6",
":. c #99FAE7",
">. c #9EFAE8",
",. c #B3E7E0",
"<. c #BFE9E7",
"1. c #BFEEE8",
"2. c #A2FBE8",
"3. c #ABFCEB",
"4. c #B6F5ED",
"5. c #BFF0E9",
"6. c #B0FCEC",
"7. c #BCF8EE",
"8. c #C2DCDE",
"9. c #C6DEE0",
"0. c #C8DEE0",
"q. c #C1E6E1",
"w. c #C3E9E7",
"e. c #C2EBE8",
"r. c #CBEBEA",
"t. c #D6ECEC",
"y. c #DAE9EB",
"u. c #C1F6EF",
"i. c #C1F8EF",
"p. c #CBF5F1",
"a. c #C5FDF3",
"s. c #CDFDF4",
"d. c #DEF6F4",
"f. c #D0FEF5",
"g. c #D3FFF5",
"h. c #D4FFF5",
"j. c #D5FFF6",
"k. c #D7FFF6",
"l. c #D6FEF6",
"z. c #DAFFF7",
"x. c #DBFFF7",
"c. c #D8FFF7",
"v. c #DAFFF7",
"b. c #D9FFF8",
"n. c #DFFCF8",
"m. c #E3EEF0",
"M. c #E4EFF0",
"N. c #E3FCF9",
"B. c #E3FDF9",
"V. c #E0FCF8",
"C. c #E4FCF9",
"Z. c #E5FDFA",
"A. c #E4FCF9",
"S. c #EAFDFB",
"D. c #EBFDFB",
"F. c #EBFEFB",
"G. c #EDFEFB",
"H. c #EAFDFB",
"J. c #F1FEFC",
"K. c #F4FFFC",
"L. c #F9FFFE",
"P. c #FAFFFE",
"I. c white",
"U. c #FEFFFF",
/* pixels */
"                                                                                                                                ",
"                                                                                                                                ",
"                                                                                                                                ",
"                                                                                                                                ",
"                                                                                                                                ",
"                                                                                                                                ",
"                                                                                                                                ",
"                                                                                                                                ",
"                                                = = = = = = = = = = = = = = = =                                                 ",
"                                                = = = = = = = = = = = = = = = =                                                 ",
"                                                * = = = = = = = = = = = = = = *                                                 ",
"                                                q q q q q q q q q q q q q w w 0                                                 ",
"                                        3 3 = r 9.y.y.y.y.y.y.y.y.y.y.t.w.<.e. .r = 3 3                                         ",
"                                        3 = * q M.I.I.I.I.I.I.I.I.I.I.P.b.j.b.e.w * = 3                                         ",
"                                        = * & q M.I.I.I.I.I.I.I.I.I.I.P.z.j.j.1.w * = =                                         ",
"                                        r q q n t.D.D.D.D.D.D.D.J.K.K.J.z.j.j.5.r 3 3 4                                         ",
"                                = = * q 0.M.M.t.] / / / / / / ' 2.3.3.3.g.j.j.u.S g g d O . . .                                 ",
"                                = = = q y.I.I.D./ Q Q Q Q Q Q ^ ;.2.>.3.s.j.j.i.Z m M g O . . .                                 ",
"                                * = * q y.I.I.D./ Q Q Q Q Q Q ^ ;.2.2.3.g.j.j.i.Z m M g O . . .                                 ",
"                                q q q n r.Z.Z.l.' ^ ^ ^ ^ ^ ^ ) >.3.3.3.s.g.g.7.F V V x $ O O O                                 ",
"                        3 3 = r 9.y.y.w.` / / ' ;.;.;.;.;.;.;.>.s.g.g.s.3.3.3.>.~ E E T x g g d + X X o                         ",
"                        3 = * q M.I.I.Z./ Q Q ^ ;.2.2.2.2.2.2.3.s.j.j.g.3.2.2.;.^ Q Q E V M M g O . . X                         ",
"                        3 = * q m.I.I.N./ Q Q ^ ;.2.2.2.2.2.2.2.s.j.j.s.3.>.2.;.^ Q Q E V m M g O . . X                         ",
"                        3 = * q m.I.I.N./ Q Q ^ 2.3.3.3.2.2.2.3.g.z.z.g.3.2.3.>.^ Q Q E C V V x O . . X                         ",
"                        3 = * q m.I.I.N./ Q Q / N.K.K.G.g.s.s.j.K.P.P.K.j.s.g.a./ Q Q Q E E E I @ . . X                         ",
"                        3 = * q m.I.I.N./ Q Q / D.I.I.P.z.j.j.z.P.I.I.P.z.j.j.a./ Q Q Q Q Q Q U @ . . X                         ",
"                        = = * q M.I.I.Z./ Q Q / D.I.I.P.z.j.j.z.P.I.I.P.z.j.j.a./ Q Q Q Q Q Q U @ . . X                         ",
"                        r q q n r.Z.N.s.[ / / [ l.Z.N.n.s.a.a.s.G.J.J.G.g.s.g.a.~ T T T E E E I % o o +                         ",
"                3 3 = r 8.y.y.r.` / / [ s.N.Z.l.[ / / / / / / ' 2.3.3.3.3.3.3.-.b f l l V V V M p y y 9 + X X X                 ",
"                = = = q y.I.I.D./ Q Q / Z.I.I.D./ Q Q Q Q Q Q ^ ;.2.2.2.2.2.2.=.z a a s m M M m s a a y o . . .                 ",
"                = = = q y.I.I.D./ Q Q / N.I.I.D./ Q Q Q Q Q Q ^ ;.2.2.2.2.2.2.=.z a a s M M M m s a a y o . . .                 ",
"                = = = q y.I.I.D./ Q Q / N.P.I.Z./ Q Q Q ^ ^ ^ ) ;.2.2.2.2.2.2.=.z p p a M M M m s a a y o . . .                 ",
"                = = = q y.I.I.D./ Q Q / s.z.z.s./ Q Q ^ *.;.;.;.2.2.2.2.2.2.2.$.k 8 8 9 m M M m s a a y o . . .                 ",
"                = = = q y.I.I.D./ Q Q / a.j.j.a./ Q Q ^ ;.2.2.2.2.2.2.2.2.2.2.$.i 8 8 8 h M M m s a a y o . . .                 ",
"                = = = q y.I.I.D./ Q Q / a.j.j.a./ Q Q ^ ;.2.2.2.2.2.2.2.2.2.2.$.i 8 8 8 h M M m s a a y o . . .                 ",
"                = = = q y.I.I.G.{ / / ` 4.u.u.4._ ^ ^ ) ;.2.2.2.2.2.2.2.;.;.;.+.i 8 8 8 h M M h s a a y o . . .                 ",
"                = = = q y.I.I.I.Z.N.N.p.P Z Z H &.;.;.;.2.2.2.2.2.2.2.;.) ^ ^ R u 8 8 8 a s s s a a a y o . . .                 ",
"                = = = q y.I.I.I.I.I.I.d.A m m C =.3.2.2.2.2.2.2.2.2.2.;.^ Q Q T u 8 8 8 p a a a a a a y o . . .                 ",
"                = = = q y.I.I.I.I.I.I.d.A m m C =.2.2.2.2.2.2.2.2.2.2.;.^ Q Q T u 8 8 8 p a a a a a a y o . . .                 ",
"                = = = q t.P.P.P.G.D.D.p.F V V Z O.=.=.=.=.=.=.=.=.=.=.%.R T T U j 8 8 9 a s s s a p p 9 o . . .                 ",
"                = = = q w.z.z.s.[ / _ / W E E T b z z z z z z z z z z z l f f f v v v M m m m h 9 8 8 6 o . . .                 ",
"                = = = w <.j.j.a./ Q Q Q Q Q Q T f a a a a a a a a a a a a a a s m M M M M M M v 8 8 8 6 o . . .                 ",
"                = = = w e.j.z.a./ Q Q Q Q Q Q T f a a a a a a a a a a a a a a s m M M M M M M v 8 8 8 6 o . . .                 ",
"                3 3 = r ..q.q.,.^ Q Q Q T T T U f s s s s s s s s s s s s s s s h M M M M M M h 7 6 6 5 O X X X                 ",
"                        1 > ; 2 U Q Q T v f f f M M M M M M M M M M M M M M M h s s s f M M M g + X o O                         ",
"                        X . . @ U Q Q T f a a s m M M M M M M M M M M M M M M m s a a s M M M g O . . X                         ",
"                        X . . @ U Q Q T f a a s m M M M M M M M M M M M M M M m s a a s m m m g O . . X                         ",
"                        X . . @ U Q Q T f a a s m M M M M M M M M M M M M M M m s a a s B C C c O . . X                         ",
"                        X . . + G L L J f a a s m M M M M M M M M M M M M M M m s a a z O.=.=.X.- . . X                         ",
"                        X . . + G K K J f a a s m M M M M M M M M M M M M M M m s a a z =.2.3.@.: . . X                         ",
"                        X . . + G K K J f a a s M M M M M M M M m m m m m m m m s a a z =.2.2.@.: . . X                         ",
"                        o X X # N G G D s p p a M V V V V V V V C C C C C C C B f s s z | #.#.} , X X o                         ",
"                                + + + $ 7 8 8 u U E E E E E E W &.=.=.=.=.=.=.O.B m m x < - - -                                 ",
"                                . . . X 6 8 8 u T ! Q Q Q Q Q ^ ;.2.2.2.2.2.2.=.C m M g O . . .                                 ",
"                                . . . o 6 8 8 u T ! ! Q Q Q Q ( ;.2.2.2.2.2.3.=.C m M g O . . .                                 ",
"                                . . . o 5 6 6 t I U U U U U U Y o.@.@.@.@.@.@.X.c g g d O . . .                                 ",
"                                        O o o o @ @ @ @ @ @ @ @ - : : : : : : - O O O +                                         ",
"                                        X . . . . . . . . . . . . . . . . . . . . . . X                                         ",
"                                        X . . . . . . . . . . . . . . . . . . . . . . X                                         ",
"                                        o X X X X X X X X X X X X X X X X X X X X X X o                                         ",
"                                                                                                                                ",
"                                                                                                                                ",
"                                                                                                                                ",
"                                                                                                                                "
};
