/* XPM */
static char *result[] = {
/* columns rows colors chars-per-pixel */
"32 32 56 1 ",
"  c #3D3A35",
". c #423D37",
"X c #45413C",
"o c #4F473C",
"O c #514A3E",
"+ c #654F2C",
"@ c #67502D",
"# c #6B532E",
"$ c #6D5631",
"% c #705731",
"& c #725A33",
"* c #7A5F35",
"= c #775E38",
"- c #785F38",
"; c #7C6136",
": c #7C633A",
"> c #4A4640",
", c #4F4A44",
"< c #534D44",
"1 c #554F48",
"2 c #6A665F",
"3 c #6D685F",
"4 c #726B5F",
"5 c #6B6760",
"6 c #6D6861",
"7 c #756D61",
"8 c #82663A",
"9 c #85693C",
"0 c #8A6C3E",
"q c #8F703F",
"w c #90713F",
"e c #8C6E41",
"r c #8F7145",
"t c #8F7748",
"y c #967442",
"u c #987744",
"i c #957A47",
"p c #9A7945",
"a c #957C4B",
"s c #997E4A",
"d c #9D814B",
"f c #9C8252",
"g c #A3864F",
"h c #A4884F",
"j c #A48651",
"k c #A68851",
"l c #AD8D55",
"z c #A48759",
"x c #A68859",
"c c #AE8C59",
"v c #B18E59",
"b c #B19056",
"n c #B5925C",
"m c #B9945E",
"M c #BB9660",
"N c #C19C62",
/* pixels */
"+%hljs$#asuw#%hvgs##0ydi%%hlga%+",
"@%hbgs%#igpy%&jlgs%%qugd%%gbgs#@",
"+%hlgs$$ajcc88vnhd8;agbl%%hbgs%@",
"@%hlgs$$pzmv88vmhd08dfnl&%hlgs#@",
"@$jbgs$$cMMc&=vmjdwpggfd$$kbga$@",
"O$sfdt$$sxcz&&sxfdwwipda&$dfda#+",
"..>166$@,166$+O154:*O<34:=O<55X ",
" .>,56$@,166$@O<534*O<24:;,,55X ",
"%;afsa::ajzf88jzxj88tsjj:9sffa;&",
"80kbhg88kvvj89cnbl98djlke9kbjd::",
"yubnvj&&hlhs&&kbbv08jlbliucnbk&$",
"wpbmbk&&hbgs%&hbMv8:jbblyubMbk&@",
"80vmnc88lbjs88jvnc&$shlk00vmnc8;",
"*8cnmv00vmjd88hlMc%$aglh88cmMc08",
"#%sknvuuvnjs88dhnc&$sglk%%sknvuy",
"@$sgvvppvMjs88sgvl%$aglk%$agvvuy",
"@#pspuypbngs%%wypy#$ighd##sdpppw",
"@%sguuyubnks%#wypy##agdd$$igpwpw",
"@%glgsuulvbh%#igkg%$glgs$$hlggww",
"#%glggyuklbh=%shbk%=hbga&%hlghwp",
";8dgch08djnc8:jbbk88cnjd88sjlk08",
"89pgvk88sgnl00kllk99cnjd89sglk88",
"wqdhvv&%rsllyyghbluubnjfuydjbc&#",
"qriacx&#9ejkyyiajjuuzcsayyaack#+",
"XX>164$@o,57ry<167::<167ye<<35X ",
"  X152$@,157re<157::<157re1122X ",
"$:fxfa::ajcze9zzxf98jzcf99jzfa:&",
";8lmfd:9kvMv88cnbk88cnbk88cnjs8:",
"#&hljd:9cmmv98vmks%&kbml*&hbgs8;",
"@%gbjd:9cnmc00cbjs%%jbmc%#hlgd8;",
"@%gbbh;&cnblpykbga$%lmMn&%gbbj&#",
"@$gbbh%%lmblppllgd$%cMNm&%gbbk%@"
};
