/* XPM */
static char *_3d57cde284d4f5cc43b7b9f5b42d2e310a8G4t6EiwdFVZc[] = {
/* columns rows colors chars-per-pixel */
"64 64 97 2 ",
"   c #060403",
".  c #080704",
"X  c #0D0B06",
"o  c #0D0C0A",
"O  c #110D07",
"+  c #100E0B",
"@  c #16120B",
"#  c #19150D",
"$  c #1F190E",
"%  c #1B1710",
"&  c #1D1912",
"*  c #21190E",
"=  c #241D11",
"-  c #281F12",
";  c #272013",
":  c #2C2415",
">  c #2F2618",
",  c #2F2818",
"<  c #302616",
"1  c #312817",
"2  c #302719",
"3  c #332A19",
"4  c #392E1B",
"5  c #3D301A",
"6  c #43351E",
"7  c #443620",
"8  c #473820",
"9  c #4B3B22",
"0  c #503E24",
"q  c #4F4125",
"w  c #534125",
"e  c #594427",
"r  c #554629",
"t  c #5A4629",
"y  c #56482A",
"u  c #5D4D2D",
"i  c #5F4D31",
"p  c #624E2C",
"a  c #67502C",
"s  c #69522D",
"d  c #614E32",
"f  c #655332",
"g  c #6C5635",
"h  c #6F5833",
"j  c #6D5738",
"k  c #705730",
"l  c #735A34",
"z  c #795E35",
"x  c #7D6137",
"c  c #7E6238",
"v  c #82663A",
"b  c #85693C",
"n  c #8A6C3D",
"m  c #8F703F",
"M  c #91703F",
"N  c #856E42",
"B  c #8A6D40",
"V  c #8D7545",
"C  c #8E7748",
"Z  c #8F7849",
"A  c #957442",
"S  c #997743",
"D  c #947947",
"F  c #9B7A46",
"G  c #94774D",
"H  c #947A49",
"J  c #997E4A",
"K  c #9C814B",
"L  c #9F844D",
"P  c #9D8053",
"I  c #A1834D",
"U  c #A2864F",
"Y  c #A18251",
"T  c #A38750",
"R  c #A78552",
"E  c #A18255",
"W  c #A38457",
"Q  c #A78655",
"!  c #A98755",
"~  c #A58853",
"^  c #A68954",
"/  c #A98A52",
"(  c #AE8E53",
")  c #AA8956",
"_  c #AD8B56",
"`  c #AF8F54",
"'  c #A48558",
"]  c #AF8E58",
"[  c #B08F54",
"{  c #B08D58",
"}  c #B09054",
"|  c #B2905B",
" . c #B3915C",
".. c #B4915D",
"X. c #B8935E",
"o. c #B8945F",
"O. c #B99460",
/* pixels */
"p p p l J / / / K K K D g p p g V K K J A M M n s p p l J / / / K K K D g p p s b M M A J K K V g p p l J / / ~ K K J V g p p u ",
"p a a l I [ } ( U L L D l a a l D U L K A A A n g a a l I } [ ( U L L D l p a k n A A A K L L D l a a l I } } ( U L L D l a a p ",
"p a a l I ` ` ( U L L D l a a l D U L K A A A n g a a l I ` ` ( U L L D l a a k n A A A K L L D l a a l I ` ` ( U L K D l p a p ",
"p a a l I ` ` ( U L L D l a a l D U L K F F F A l s s z U } } ` U L L D l s s l m A A S I T U D l a a l I ` ` ( U L K D l p a p ",
"p a a l I ` ` ( U L L D l a a l D U L U _ { { R n z z n ) ....| T L L J v z z v D K K I ]  . .Y l a a l I ` ` ( U L K D l p a p ",
"p a a l I ` ` ( U L L D l a a l D U L T  .o..._ n c c n _ o.o. .~ L L J b x c n J K L T  .o.o.R l a a l I ` ` ( U U K D l p a p ",
"p a a l I ` ` ( U L L D l a a l D L L T ..o.o._ n c c B _ o.o. .~ L L J b c c n J L U R ..o.o.R l a a l I ` ` ( U L K D l p a p ",
"p a a l I ` ` ( U L L D l a a l D U T ^ ..o.X._ n x x n _ o.o. .~ L L J n v v n J U U T { ....Y l a a l I ` ` ( U L K D l p a p ",
"p a a l I ` ` ( U L L D l a a l Y |  . ...o.X.) c g g c ) o.o. .~ L L K A A A A K L L U T ~ ~ J l a a l I ` ` ( U L K D l p a p ",
"p a a l I ` ` ( U L L D l a a l Q o.o.o.o.o.o.) z a a l ! o.o. .~ L L K S A A A K L L L L L L D l a a l I ` ` ( U L L D l a a p ",
"a a a l I ` } ` U U U D l a a l Q o.o.o.o.O.o.) z a a l ! o.o. .R L L K S A A S K L U U L U U D l a a l I ` } ( U U U D l a a p ",
"p p p f V J J J H H Z N a p p g G E E E W ' W J h p p g G E E P H C Z V n n n n V V V V V H Z N g p p g V J J J H H Z N f p p t ",
"3 4 3 4 6 6 6 6 6 6 6 5 4 3 3 4 6 7 7 9 7 7 7 6 4 3 4 5 6 7 7 7 6 6 6 6 5 5 5 5 5 5 5 5 6 6 6 5 4 4 3 4 6 6 6 6 6 6 6 5 4 3 3 3 ",
"4 4 4 6 r u u u r r r q 5 4 4 5 q r r r 0 0 0 9 5 4 4 6 r u u u r r r q 5 4 4 5 9 0 0 0 w r r q 5 4 4 6 r u u u r r r q 5 4 4 4 ",
"5 5 5 6 u f f f p u u y 6 5 5 6 y u u u e e e w 6 5 5 6 p f f f p u u y 6 5 5 6 w e e e u u u r 6 5 5 7 p f f f p u u y 6 5 5 4 ",
"5 5 5 6 u f f f p u u y 6 5 5 6 r u u u e e e w 6 5 5 6 u f f f p u u y 6 5 5 6 w e e e u u u r 6 5 5 6 u f f f u u u y 6 5 5 4 ",
"5 5 5 6 u f f f p u u y 6 5 5 6 r u u u e y y e 6 5 6 8 p f f f p u u y 6 6 5 6 e e e y u p p y 6 5 5 6 u f f f u u u y 6 5 5 4 ",
"5 5 5 6 u f f f p u u y 6 5 5 6 r u u p f f f d 9 6 6 0 f g g g p u u y 9 6 6 9 y u u u f g g p 6 5 5 6 u f f f u u u y 6 5 5 4 ",
"5 5 5 6 u f f f p u u y 6 5 5 6 r u u p g j j f w 9 9 w f j j g f u u y 9 9 9 9 y u u p g j j d 6 5 5 6 u f f f u u u y 6 5 5 4 ",
"5 5 5 6 u f f f p u u y 6 5 5 6 r u u p g j j f w 9 9 w f j j g f u u y 9 9 9 9 y u u a g j j d 6 5 5 6 u f f f u u u y 6 5 5 4 ",
"5 5 5 6 u f f f p u u y 6 5 5 6 y u p f g j j f w 9 9 0 f j j g f u u y 0 9 9 0 y u u p g g g d 6 5 5 6 u f f f u u u y 6 5 5 4 ",
"5 5 5 6 u f f f p u u y 6 5 5 6 i g g g j j j f 9 6 6 9 f j j g f u u u e e e e u u u u p f f y 6 5 5 6 u f f f u u u y 6 5 5 4 ",
"5 5 5 6 u f f f p u u y 6 5 5 6 d j j j j j j f 8 5 5 7 d j j g f u u u e e e e u u u u u u u r 6 5 5 6 u f f f u u u y 6 5 5 4 ",
"5 5 5 6 u f f f p u u y 6 5 5 6 d j j j j j j f 8 5 5 7 f j j g p u u u e e e e u u u u u u u r 6 5 5 6 u f f f u u u y 6 5 5 4 ",
"4 4 4 5 r u u u y y y w 5 4 4 6 y d d d d f d u 6 4 4 6 y d d i u r y r e w w e r r r r r y y w 6 4 4 6 r u u u y y y w 5 4 4 4 ",
"* * * = ; ; ; ; ; ; ; ; = * * = ; ; : > ; ; ; ; = * = = ; ; ; ; ; ; ; ; = = = = ; ; ; ; ; ; ; ; = * * = ; ; ; ; ; ; ; ; = * * = ",
"$ $ $ = > 1 1 1 > > > ; * $ $ * ; > > > ; ; ; ; * $ $ = > 1 1 1 > > > ; * $ $ * - ; ; ; > > > ; * $ $ = > 1 1 1 > > > ; * $ $ $ ",
"* * * = 1 4 4 4 1 1 1 > = * * * > 1 1 1 > > > : * $ * = 1 4 4 4 1 1 1 > = * * * ; > > > 1 1 1 > * * * = 1 4 4 4 1 1 1 > = * * $ ",
"$ $ $ = 1 4 4 4 1 1 1 > = * * * > 1 1 1 > > > : * * * = 1 4 4 4 1 1 1 > = * * * ; > > > 1 1 1 > * * * = 1 4 4 3 1 1 1 > = * * $ ",
"$ $ $ = 1 4 4 4 1 1 1 > = * * * > 1 1 1 < < < > = * * = 1 4 4 4 1 1 1 > = * * * : > > < 1 1 1 > = * * = 1 4 4 3 1 1 1 > = * * $ ",
"* * $ = 1 4 4 4 1 1 1 > = * * * > 1 1 1 3 4 4 3 ; = = ; 3 4 4 4 1 1 1 > ; = = - > < 1 1 4 4 4 1 = * * = 1 4 4 3 1 1 1 > = * * $ ",
"* * $ = 1 4 4 4 1 1 1 > = * * * > 1 1 1 4 4 4 3 ; - = ; 3 4 4 4 1 1 1 < ; = = ; < 1 1 1 4 4 4 3 = * * = 1 4 4 3 1 1 1 > = * * $ ",
"* * * = 1 4 4 3 1 1 1 > = * * * > 1 1 1 4 4 4 3 ; = = ; 3 4 4 4 1 1 1 < ; = = ; < 1 1 1 4 4 4 3 = * * = 1 4 4 3 1 1 1 > = * * $ ",
"* * * = 1 4 4 4 1 1 1 > = * * * > 1 1 3 4 4 4 3 ; = = ; 3 4 4 4 1 1 1 > ; ; ; ; < 1 1 1 4 4 4 1 = * * = 1 4 4 3 1 1 1 > = * * $ ",
"* * * = 1 4 4 4 1 1 1 > = * * = 1 4 4 4 4 4 4 3 = = = = 3 4 4 4 1 1 1 1 : : : : 1 1 1 1 1 1 1 > = * * = 1 4 4 3 1 1 1 > = * * $ ",
"* * * = 1 4 4 4 1 1 1 > = * * = 3 4 4 4 4 4 4 3 = * * = 3 4 4 4 1 1 1 1 > : : > 1 1 1 1 1 1 1 > * * * = 1 4 4 4 1 1 1 > = * * $ ",
"* * * = 1 4 4 4 1 1 1 > = * * = 3 4 4 4 4 4 4 3 = * * = 3 4 4 4 1 1 1 1 > > > > 1 1 1 1 1 1 1 > = * * = 1 4 4 4 1 1 1 > = * * * ",
"$ $ $ = > 1 1 1 > > > ; * $ $ * > 3 3 3 3 3 3 2 = * $ = > 3 3 1 > > > > : : : : > > > > > > > ; * * * * > 1 1 , > > > ; * $ $ $ ",
"O O O O @ @ @ @ @ @ @ @ O O O O @ @ @ # @ @ @ @ + O O @ @ @ @ @ @ @ @ @ @ @ @ @ @ @ @ @ @ @ @ @ O O O O @ @ @ @ @ @ @ @ O O O O ",
"X X X O @ # # # @ @ @ @ O X X O @ @ @ @ @ @ @ + O O O O @ # # # @ @ @ @ O X X O + @ @ @ @ @ @ @ O X X O @ # # # @ @ @ @ O X X X ",
"X X X O # # # # # # # @ O X X O @ # # # @ @ @ @ O X X O # # # # # # # @ O X X O @ @ @ @ @ # # @ O X X O # # # # # # # @ O X X O ",
"X X X O # # # # # # # @ O X X O @ # # # @ @ @ @ O X X O # # # # # # # @ O X X O @ @ @ @ # # # @ O X X O # # # # # # # @ O X X O ",
"X X X O # # # # # # # @ O X X O @ # # # @ @ @ @ O O O O # # # # # # # @ O O O O @ @ @ @ # # # @ O X X O # # # # # # # @ O X X O ",
"X X X O # # # # # # # @ O X X O @ # # # # # # # O O O + # # # # # # # @ O O O O @ # @ # # # # # O X X O # # # # # # # @ O X X O ",
"X X X O # # # # # # # @ O X X O @ # # # # $ $ # @ O O @ # $ $ # # # # @ O O O @ # # # # # $ $ # O X X O # # # # # # # @ O X X O ",
"O X O O # # # # # # # @ O X X O @ # # # # $ $ # @ O O @ # $ $ # # # # @ O O O @ # # # # # $ $ # O X X O # # # # # # # @ O X X O ",
"O O O O # # # # # # # @ O X X O @ # # # # $ $ # @ O O @ # $ $ # # # # @ @ O O @ # # @ # # # # # O X X O # # # # # # # @ O X X X ",
"# # # # # # # # # # # # O X X O # # # # # $ $ # O O O O # $ $ # # # # # @ @ @ @ # # # # # # # @ O X X O # # # # # # # @ O X X X ",
"# # # # & & & & & & & # @ O O # & = = & & % & & # # # # % $ & & & & & $ # @ @ @ # # # # # # # @ O O X O # # # # # # # @ O X X O ",
"# # # # & = & = & & & & # # # # & = = = = = = = # # # # & = = = & & & & & # # # & & & & # # # # # # # # # # % & & & & # @ O O # ",
"# @ @ # % & & & & & & % # # # # % & & & & & & & # # # # % & & & & & & & # # # # % % % % % % % % # # # # % % % % & & & % # @ # # ",
"o o o o o o o o o o o o o o o o o o o o o o o o o o o o o o o o o o o o o o o o o o o o o o o o o o o o o o o o o o o o o o o o ",
"o o o o o o o o o o o o o o o o o o o o o o o o o o o o o o o o o o o o o o o o o o o o o o o o o o o o o o o o o o o o o o o o ",
"o o o o + o + + + + + O o o o o + + + O + O + o o o o o + + + + + + + O o o o o o + + + + + + o o o o o + + + + + + + O o o o o ",
"o o o o + + + + + + + o o o o o + + + O + + O o o o o o + + + + + + + o o o o o o + O + + + + o o o o o + + + + + + + o o o o o ",
"o o o o + + + + + + + o o o o o + + + O O + + o o o o o + + + + + + + o o o o o o O O O + + + o o o o o + + + + + + + o o o o o ",
"o o o o + + + + + + + o o o o o + + + + + + + + o o o o + + + + + + + O o o o o O O O + + + + o o o o o + + + + + + + o o o o o ",
"o o o o + + + + + + + o o o o o + + + + + + + + o o o o + + + + + + + O o o o o O + + + + + + o o o o o + + + + + + + o o o o o ",
"o o o o o + + + + + + o o o o o + + + + + + + + o o o o + + + + + + + O o o o o + + + + + + + o o o o o + + + + + + + o o o o o ",
"o o o o o o + + + + + o o o o o O + + + + O + + o o o o O O + + + + + + o o o o + + + + + + + o o o o o + + + + + + + o o o o o ",
"        . . o o o o o o .   . o o o o o o o o o o o o o o . o o o o o o o o o o + + + + O o O o o o o o o O + + + + + o o o o o ",
"        . . . . . . . .         . . . . . . . .         . . . . . . . . . . . o o o o o o . o o o o o o o . o o o o o o .   . o ",
"        . . . . . . . .         . . . . . . . .         . . . . . . . . . . . . . . . . . . . .         . . . . . . . .         ",
"        . . . . . . . .         . . . . . . . .         . . . . . . . . . . . . . . . . . . . .         . . . . . . . .         "
};
