/* XPM */
static char *_12ed6fb7d9c41f6a62a78a8bffd7735JvSSeehtyXn9cqkA[] = {
/* columns rows colors chars-per-pixel */
"64 64 90 1 ",
"  c #353535",
". c #3C3935",
"X c #3E3E3F",
"o c #433E37",
"O c #443F38",
"+ c #44413C",
"@ c #4A453F",
"# c #4F483E",
"$ c #50493F",
"% c #664F2C",
"& c #67502C",
"* c #6B532E",
"= c #675335",
"- c #6E5631",
"; c #6F5831",
": c #705731",
"> c #725A33",
", c #7A5F35",
"< c #785F38",
"1 c #7E6237",
"2 c #7D633B",
"3 c #424243",
"4 c #4A4641",
"5 c #4D4A43",
"6 c #534D43",
"7 c #6B675F",
"8 c #6F6A5F",
"9 c #636362",
"0 c #696662",
"q c #6E6A64",
"w c #676868",
"e c #686869",
"r c #726D64",
"t c #706D68",
"y c #82663A",
"u c #85693C",
"i c #8B6C3D",
"p c #906F3E",
"a c #91713F",
"s c #8E6F41",
"d c #8F7145",
"f c #8F7748",
"g c #967441",
"h c #997743",
"j c #967B47",
"k c #9A7845",
"l c #967D4A",
"z c #9A7F4A",
"x c #9B7F4E",
"c c #9C814B",
"v c #99804E",
"b c #9E824C",
"n c #9F844D",
"m c #978051",
"M c #9A8250",
"N c #9D8352",
"B c #A0834D",
"V c #A1854E",
"C c #A5864F",
"Z c #A38753",
"A c #A68750",
"S c #A38355",
"D c #A58853",
"F c #A68852",
"G c #A98856",
"H c #AE8B57",
"J c #AD8D54",
"K c #AF8F55",
"L c #A5875A",
"P c #A68959",
"I c #AA8A5B",
"U c #AB8B5B",
"Y c #AC8A58",
"T c #AD8B58",
"R c #AE8C58",
"E c #AD8C5C",
"W c #B08F55",
"Q c #B08E59",
"! c #B08F5F",
"~ c #B09055",
"^ c #B3905B",
"/ c #B4905B",
"( c #B5925D",
") c #B7945E",
"_ c #B9945F",
"` c #AD8E61",
"' c #B19060",
"] c #B99560",
"[ c #BF9A61",
"{ c #C29D62",
/* pixels */
"&&&-C~KKVnnz-%&*lVnbggga*&&-C~KKVnnz-%&*igggcnnz-%&-C~KKVnnz-%&&",
"&&&-C~KKVnnz-%&*lVnbggga*&&-C~KKVnnz-%&*igggcnnz-%&-C~KKVnnz-%&&",
"&&&-C~KKVnnz-%&*lVnbggga*&%-C~KKVnnz-%&*igggcnnz-%&-C~KKVnnz-%&&",
"&&&-C~KKVnnz-%&*lVnbkkkg:**:A~~KVnnz>***aggkBVVc;%&-C~KKVnnz-%&&",
"&&&-C~KKVnnz-%&*lVnVQ^/Hy,,yR)((Vnncy,,1zbcB^((R>%&-C~KKVnnz-%&&",
"&&&-C~KKVnnz-%&*lVnV(_]Qu11uQ__(Znncy11yznnV(__Q>%&-C~KKVnnz-%&&",
"&&&-C~KKVnnz-%&*lnnV(__Qu11uQ__(Znncy11yznnV(__Q>%&-C~KKVnnz-%&&",
"&&&-C~KKVnnz-%&*zVVZ(__Qu11yR__(ZnncuyyyznnV^((R>%&-C~KKVnnz-%&&",
"&&&-C~KKVnnz-%&-G((()__Q>**>T__(ZnnbggggcnnnVZZb;%&-C~KKVnnz-%&&",
"&&&-C~KKVnnz-%&-T]_____Q>%%-T__(Znnbhgggcnnnnnnz-%&-C~KKVnnz-%&&",
"&&&-C~~KVnVz-%&-T]_____Q>%&-T]_(VnnbhgggbVVVnnVz-%%-C~~KVnVz;&&&",
"%%%=xDDZMMMl-&&-SEEE!''U>%&-SEEUNvMvggggllllvMMl>**-bDDZMMMl=%%%",
"....44467rr8=&&%66660rrr=&&%66660rrr2yy164467rrr2,1>64467rr7+...",
"    XXX39ew0=&&%+XX39ew0=&&%+XX39ew0211<+XX39ew0211<+XX39ee9X   ",
"    XXX39ee0=&&%+XX39ee0=&&%+XX39ew0211<@XX39ew0211<@XX39ee9X   ",
"....@4450qq0=**&#4450qq0=**&#4450qqr211<$4450qqr211<64450qq0+...",
">>><xNNNMmml1,,1xNNNPPPZy,,1SPPPPPPZu11yflllZPPZu11yxNNNMmml2>>>",
"111yD~~KVnVcy11yD~~~WW~Du11uQ]__~W~Ku11ycVVVKW~Du11yD~~KVnVcy111",
"111yDKKKVnncy11yDKKKKKKDu11uQ__)~KKDu11yznnVKKKDu11yDKKKVnncy111",
"yyyuD~~KVVVcy11yDKKKKKKDy11yR_)(~W~Du11ycVVVKKKDuyyuD~~KVVVcy111",
"ggggQ)((KKKD>**>C~KKVVVc>**>A~~~(()Qu11yAKKKKKKKgaggQ)((KKKD>***",
"gggk^__)~KWD>%%-C~KKVnnz-%%-C~KW(__Qu11yD~KKKKKKkggk^__)~KWD>%&&",
"gggk^__)~KKD>%%-C~KKVnnz-%%-C~KW(__Qu11yD~KKKKKKkggk^__)~KKD>%&&",
"ggggQ__)~W~D>**:A~~KVnnz>**:C~KW(__Qu11yAKKKKKKKhgggQ__)~W~D>***",
"yyyuQ___(()Qy,,yR)((Vnncy,,yDWKW(__Q>**:zVVVKKKDiyyuQ___(()Qy,,,",
"111yQ______Qu11uQ__(Znncy11yDKKW(__Q>%&*lnnVKKKDu11yQ______Qu111",
"111uQ]_____Qu11yQ__(Znncy11yD~K~(__Q>%&*lVnVKKKDu11uQ]_____Qu111",
"111yT(((___QiyyuQ__(Znncy11yDKKK(__Q>%&*lVnVKWKDy11yT(((___Qiyyy",
"***>zZVD(__(kaggQ__(Znncy11ycVVZ(__Q>%&*lVnVKKKD>**>zZVD(__(kagg",
"&&&*lnnV(__(kggk^__(Znncy11yznnV(__Q>%&*lVnVKKKD>%&*lnnV(__(kggg",
"&&&*lVnV(__(kggk^__(Znncy11yznnV(_]Q>%&*lVnVKKWD>%&*lVnV(__(kggg",
"&&&*lVnVQ((Qkggk^__(Znncy111zbbVQ((H>%&*lVnVKKKD>%&*lVnVQ((Qkggg",
"&&&*lVnbkkkkgggk^__(Znnz>***ahghkkkg-&&*lVnnVVVc;%&*lVnbkkkkgggg",
"&&&*lVnbgggggggk^__(Znnz-%&*igggggga*&&*lVnnnnnz-%&*lVnbgggggggg",
"&&&*lnnbgggggggk^__(Znnz-%&*igggggga*&&*lnnnnnnz-%&*lnnbgggggggg",
"&&&*zVVVkggggggkQ))(AVVc;%&*aggghhhg*&&*zVVVnnnz-%&*zVVVkggggggg",
"&&&-VKKKBcbcggghK~~~KKKD>%&*jbcbDDKC>%&-VKKKVnnz-%&-VKKKBcbcgggg",
"&&&-C~KKVnnbggghDKKKKKWD>%&*lVnVKK~D>%&-C~KKVnnz-%&-C~KKVnnbgggg",
"&&%-C~KKVnnbhgghDKKKKKKD>%&*lnnVKKKD>%%-C~KKVnnz-%%-C~KKVnnbhggg",
"***-CKKKVVVbggggDKKKW~~D>**-zVVVKKKD>**:A~~KVnnz>**-CKKKVVVbgggg",
",,,1cVVVKKKDiyyucVVZ/()Qy,,1CKKKKKKDy,,yR)((Vnncy,,1cVVVKKKDiyyy",
"111yznnVKKKDu11yznnV(__Qu11yD~KKKKKDu11uQ__(Znncy11yznnVKKKDu111",
"111yznnVKKKDu11yznnV(__Qu11yD~KKKKKDu11yQ__(Znncy11yznnVKKKDu111",
"yyyyznnVK~~Dy11yzbbV^))QiyyuDKKKWKKDuyyuQ__(ZnncuyyyznnVK~~Dy111",
"ggggcnnV^()Q>***ahgkK~~KgaggbVVVKWKKgaggQ__(ZnnbggggcnnV^()Q>***",
"ggggcnnV(__Q>%&*igghDKKKkgggcnnVKKKKkggk^__(ZnnbhgggcnnV(__Q>%&&",
"ggggbVnV(__Q>%&*pgghK~WKkgggbVVVKWWKkggk/__(VnnbggggbVnV(__Q>%&&",
"sssdlllxE''U>%&*issgDTGPkggglllxPGGPggggUEEUNvMvgggglllxE''U-%%%",
"oooO44460rrr=&&%#@@40rrrgggd64460rrr2yy166660rrrgggd64460rr0+...",
"    XXX39ew0=&&%+XX39ewqdggs@XX39ew0211<+XX39ewqdggs@XX39ee9X   ",
"    XXX39ee0=&&%+XX39ewqdggs@XX39ew0211<@XX39ewqdggs@XX39ee9X   ",
"....44450qq0=**&#4450tqrdggs64450qqr211<64450qqrdggs64450qq0+...",
">>>2NPPLMmml1,,1xNNZU``UiyyuSPPPPPPZu11ySPPPPPPZuyyuSPPLMmml2>>>",
"111uQ]_(VnVcy11yD~~~)__^u11yQ]__~W~Du11uQ]__~W~Du11yQ]_(VnVcy111",
"111uQ__(Znncy11yDKKW(__Qu11uQ__)~KKDu11uQ__)~KKDu11uQ__(Znncy111",
"111yR_)(Vnncy11yD~W~(__Qu11uQ__(KKKDy11yR_)(~W~Dy11yR_)(Znncy111",
"***>A~~KVnncy11yR)((___Qu11uQ__(AVVc>**>A~~~(()Q>**>A~~KVnncy111",
"&&%-C~KKVnncy11uQ______Qu11uQ__(Znnz-%%-C~KW(__Q>%%-C~KKVnncy111",
"&&&-C~KKVnncy11uQ______Qu11yQ__(Znnz-%&-C~KW(__Q>%&-C~KKVnncy111",
"&&&-C~KKVVVcy11yR___)))QiyyuR__(Vnnz-%&-A~W~__]Q>%&-C~KKVVVcy111",
"&&&-C~KKKKKD>**>T__)~~~KgaggK~~KVnnz-%&-G)(_[{{_>%&-C~KKKKKD>***",
"&&&-C~KKKKWD>%%-T__)~KKKkgghDKKKVnnz-%&-T]__{{{_>%&-C~KKKKWD>%&&",
"&&&-C~KKKKKD>%&-T__)~KKKkgghDKKKVnnz-%&-T___{{{_>%&-C~KKKKKD>%&&",
"&&&-C~KKKKKD>%&-T__)~KKKkgghDKKKVnnz-%&-T___{{{_>%&-C~KKKKKD>%&&"
};
