/* XPM */
static char *_a3457b4574745d3bbe01cb204d52a0bSqViENJLNEAsYmh6[] = {
/* columns rows colors chars-per-pixel */
"32 32 194 2 ",
"   c gray50",
".  c #7E7E7E",
"X  c gray46",
"o  c #747474",
"O  c gray45",
"+  c #797979",
"@  c #979797",
"#  c #9A9A9A",
"$  c #8D8D90",
"%  c #8A8A8E",
"&  c #89898C",
"*  c #808081",
"=  c gray49",
"-  c #727272",
";  c DimGray",
":  c #6F6F6F",
">  c #959595",
",  c #9D9D9D",
"<  c gray61",
"1  c #989898",
"2  c #838383",
"3  c gray48",
"4  c #7B7B79",
"5  c #7F7F7E",
"6  c #959596",
"7  c #979799",
"8  c #8B8B8E",
"9  c #848485",
"0  c gray51",
"q  c #7B7B7B",
"w  c gray47",
"e  c #717270",
"r  c #767675",
"t  c gray58",
"y  c gray59",
"u  c #808080",
"i  c #7D7D7E",
"p  c #868688",
"a  c #868689",
"s  c #999997",
"d  c #A0A295",
"f  c #9FA094",
"g  c #8F9091",
"h  c #828283",
"j  c #818182",
"k  c #88888C",
"l  c #8C8C90",
"z  c #969697",
"x  c #989896",
"c  c #9D9F93",
"v  c #88888B",
"b  c #6F6F70",
"n  c #6C6C6C",
"m  c #818181",
"M  c #A3A499",
"N  c #A1A397",
"B  c #8E8E8F",
"V  c #848484",
"C  c #8E8E91",
"Z  c #979795",
"A  c #9EA094",
"S  c #8C8C8D",
"D  c #858588",
"F  c #727273",
"G  c gray44",
"H  c gray60",
"J  c #767676",
"K  c #7C7C7C",
"L  c #8B8C8D",
"P  c #8E8E90",
"I  c #777777",
"U  c #797977",
"Y  c #7C7C7A",
"T  c #838384",
"R  c #929292",
"E  c #949495",
"W  c #858587",
"Q  c #87878A",
"!  c #858589",
"~  c #757576",
"^  c #777778",
"/  c #838381",
"(  c #858583",
")  c #868686",
"_  c #9A9A9B",
"`  c #979798",
"'  c #89898B",
"]  c #929293",
"[  c #7B7B7C",
"{  c gray43",
"}  c #8A8A8D",
"|  c #939394",
" . c #989996",
".. c #A1A396",
"X. c #9A9A98",
"o. c #7F7F7D",
"O. c #99999A",
"+. c #9B9B9A",
"@. c #9B9C9A",
"#. c #7E7E7F",
"$. c #848487",
"%. c #848486",
"&. c #A0A195",
"*. c #88888A",
"=. c #8A8A8C",
"-. c #8D8E8F",
";. c #8B8B8F",
":. c #A3A599",
">. c #9A9A99",
",. c #7C7C7D",
"<. c #8D8D8E",
"1. c #909090",
"2. c gray57",
"3. c #787879",
"4. c #6D6D6E",
"5. c #6C6C6D",
"6. c #88878A",
"7. c #878789",
"8. c #727270",
"9. c #70706F",
"0. c #7A7A7B",
"q. c #87878B",
"w. c #989899",
"e. c #A2A498",
"r. c #949493",
"t. c gray56",
"y. c #757475",
"u. c #717171",
"i. c #989997",
"p. c #A0A296",
"a. c #91918F",
"s. c gray55",
"d. c #7B7C7A",
"f. c #9C9C9B",
"g. c #9A9B99",
"h. c #7D7D7C",
"j. c #7B7B7A",
"k. c #9B9D91",
"l. c #9FA195",
"z. c #939392",
"x. c #909091",
"c. c #89898D",
"v. c gray42",
"b. c #7F807E",
"n. c #989897",
"m. c #949496",
"M. c #8C8C8F",
"N. c #79797A",
"B. c #939393",
"V. c #8D8D91",
"C. c #858584",
"Z. c #A1A297",
"A. c #7F7F80",
"S. c #7D7D7B",
"D. c #9D9E92",
"F. c #A2A397",
"G. c #A1A296",
"H. c #A5A79B",
"J. c #9C9C9A",
"K. c #9D9D9B",
"L. c #8F8F92",
"P. c #818183",
"I. c #7A7B79",
"U. c #797A78",
"Y. c #717170",
"T. c #878785",
"R. c #848482",
"E. c #86868A",
"W. c #6E6E6F",
"Q. c #888987",
"!. c #79797B",
"~. c #8E8F90",
"^. c #909192",
"/. c #8C8D8E",
"(. c #838386",
"). c #A4A698",
"_. c #9D9E9C",
"`. c #979897",
"'. c #767677",
"]. c #A4A699",
"[. c #A2A398",
"{. c #959597",
"}. c #939395",
"|. c #8B8B8D",
" X c gray54",
".X c #898989",
"XX c #868687",
"oX c #8B8B8C",
"OX c #838385",
"+X c #909092",
"@X c #A1A398",
"#X c #858485",
"$X c #8C8C8E",
"%X c white",
/* pixels */
"  . X o O + @ # $ % % & * = X - ; : > , < 1 2 * & & *     = X o ",
"  . 3 3 4 5 6 7 8 & % & 9 0 q w e r t # # y u i p a *     . 3 3 ",
"  0 t s d f g 8 h j k l z 1 @ x f c g l $ v b n X w .     0 t @ ",
"= m t s M N B & V 9 8 C 6 y > Z d A S k & D F G w 3   u   0 > H ",
"X J + K L P 8 l z H # 6 . I G G U Y u * * T R > y E v W u   0 2 ",
"3 3 + q D Q ! v E @ # > K ~ G G ^ q / ( 2 ) @ _ # ` ' W j u . = ",
"@ @ @ ] [ X { { I K } l v & | > y  ...N X.z C l $ 8 h j a W w X ",
"1 H # y o.U G G I [ a & & 8 z H O.+.M M @.7 l } & Q   #.$.%.q + ",
"2 9 8 g f &.Z > y t V * * m h V *.=.-.P $ l ;.& h   I X J q R @ ",
"* h k B N :.>.H # z 2   0 0 u m %.D Q Q ! ! ! $.  ,.w ^ + . 6 _ ",
"& & % 8 P <.V V 8 8 * m 1.2.' p j   3.~ 4.5.5.4.o w $.& > 6 C l ",
"& & % % & 6.T V <.<.T V 1.2.7.%.i q 3 w 8.9.: G J 0.q.$ w.w.l % ",
"* 0 & & j V > >.M e.r.t.V * 3.y.n u.2.i.f A Z | & q.% % l l % % ",
"2 V *.Q j V z +.p.f a.s.u = d.U 9.o E f.:.M g.z l % % % % % l $ ",
"1 > V j *.& l } h.U 9.: o j.k.l.z.x.$ $ P <.9 9 c.% % % % l 7 # ",
"# z V j p Q Q D [ I v.v.I b.f M n.m.$ M.% k * * Q c.M.$ P x.w.# ",
"$ M.c.a N.I I [ B.R I I R y g P M.V.z z l & *   u V z @.M N x.l ",
"% } v D [ + I K 6 y i = t z 8 k k } B.] & 7.C.( 2 ) z @.:.Z.-.% ",
"% q.N.q B.6 & v M.C y t ) 2 j m m A.3 3.I S.D.F.X.z C $ P B 8 % ",
"% q.N.[ t @ l % & } 6 t m = K K = = j.4 + b.G.H.J.7 M.c.k k & & ",
"% % v 7.T V c.& h A.3 + J o n n O j.k.p.x @ K.@.L.M.& Q j * * * ",
"! ! Q a j P.& k A.K J J I.U.Y.G ^ o.c F.X.w.O.7 M.c.Q p j * * * ",
"5.{ ~ N.a & % q.3.J = / D.&.Z > y t T.R.2 9 8 l k E.j j 7.v & & ",
"5.W.I K } l % v K q 0 Q.p.:.>.H # z V *   u a Q E.D j j v & q.Q ",
"! q.E @ O.7 l M.> @ 1 @ x.<.V V 8 M.& Q * . w 3.  j D Q } q.!.I ",
"~.^._ < _ 7 l l w.# # w.l k P.h } M.P /.h A.3.w ,.  (.! k a w X ",
").:._.# L.l 8 8 l $ $ l % % & } E `.e.Z./.k q.D w X '.w A.u . = ",
"].M +.7 l c.a ! Q Q k & M.l M.$ m.@ [.p.<.c.& a 3.X I + / ( 2 2 ",
"~.P $ l ;.E.u.{ ~ 3.A.9 z O.{.}.M.|. X.XXX%.j u .   D oXl.N X.1 ",
"Q q.} % & $.{ v.X 3.. 0 > 1 6 | & Q W W %.OXm m 2 9 8 +X@XM X.1 ",
"I 0.q.& h   o X $.a *   0 9 % } h m %.W W W Q =.y 1 O.w.x.<.#X2 ",
"o I Q & * = X ^ q.& *     * & & * u %.W W D v $X# < < # l k *   "
};
