/* XPM */
static char *f022304da2a14b7be97ce41d844e8e7b2ecZdHYLrsJXfr8U[] = {
/* columns rows colors chars-per-pixel */
"64 64 205 2 ",
"   c #8A8A8E",
".  c gray51",
"X  c gray60",
"o  c #88888B",
"O  c #89898C",
"+  c #808081",
"@  c #8C8C90",
"#  c gray50",
"$  c gray61",
"%  c #747474",
"&  c #808080",
"*  c #7E7E7E",
"=  c gray46",
"-  c #9A9A9B",
";  c #9A9A9A",
":  c #87878B",
">  c #767677",
",  c #979797",
"<  c #989898",
"1  c #8C8C8F",
"2  c gray47",
"3  c #797979",
"4  c #858587",
"5  c #686868",
"6  c #87878A",
"7  c #777777",
"8  c DimGray",
"9  c #86868A",
"0  c gray59",
"q  c #8D8E8F",
"w  c #9E9E9C",
"e  c #727272",
"r  c #A8AA9A",
"t  c #6C6C6C",
"y  c #7A7A78",
"u  c #8A8A8D",
"i  c #868689",
"p  c #969697",
"a  c #A7A99A",
"s  c #A5A799",
"d  c #9D9D9D",
"f  c #818182",
"g  c #818181",
"h  c #A2A496",
"j  c #A5A699",
"k  c #979798",
"l  c #959595",
"z  c gray45",
"x  c gray43",
"c  c #89898D",
"v  c #858588",
"b  c #838384",
"n  c #8B8B8E",
"m  c #747473",
"M  c #A9AB9A",
"N  c #848486",
"B  c #8D8D8F",
"V  c #838383",
"C  c #89898B",
"Z  c #989899",
"A  c #848482",
"S  c #88888A",
"D  c #777778",
"F  c #959596",
"G  c #8B8B8F",
"H  c #767676",
"J  c #A3A599",
"K  c #A8AB9A",
"L  c #7C7C7C",
"P  c #6F6F6F",
"I  c gray58",
"U  c #7F7F80",
"Y  c #8C8C8E",
"T  c #A7A99B",
"R  c #939393",
"E  c #8E8E8F",
"W  c #7A7A7B",
"Q  c gray49",
"!  c #9B9B9A",
"~  c #8D8D90",
"^  c gray42",
"/  c #6D6D6E",
"(  c #676767",
")  c #7B7B7B",
"_  c #6D6D6D",
"`  c #A1A296",
"'  c #A0A195",
"]  c #858589",
"[  c #88888C",
"{  c #79797A",
"}  c #89888C",
"|  c #8F8F91",
" . c #757576",
".. c gray48",
"X. c #848484",
"o. c #A2A497",
"O. c #A3A597",
"+. c #9A9A99",
"@. c #A6A89A",
"#. c #A9AB9B",
"$. c #747374",
"%. c #8B8B8D",
"&. c #959597",
"*. c #9A9A98",
"=. c #99999A",
"-. c #868688",
";. c #A4A597",
":. c #999998",
">. c #929292",
",. c #8F8F90",
"<. c #7E7E7C",
"1. c #7A7B79",
"2. c #A1A394",
"3. c #8A8A8C",
"4. c #949496",
"5. c gray57",
"6. c #A2A397",
"7. c gray52",
"8. c #9EA093",
"9. c #7D7D7E",
"0. c #999997",
"q. c #8E8E90",
"w. c #686867",
"e. c #979896",
"r. c #797977",
"t. c #6F6F6E",
"y. c #838385",
"u. c #8E8E91",
"i. c #939395",
"p. c #9B9C9A",
"a. c #878789",
"s. c #8D8D91",
"d. c #9D9E9C",
"f. c #848487",
"g. c #A1A397",
"h. c #909090",
"j. c #898989",
"k. c #A4A698",
"l. c #A2A398",
"z. c #939394",
"x. c #A3A498",
"c. c #919192",
"v. c #A1A396",
"b. c #A2A498",
"n. c gray56",
"m. c #929293",
"M. c #6A6A6A",
"N. c #7C7C7B",
"B. c #9D9F92",
"V. c #787977",
"C. c #686768",
"Z. c #949495",
"A. c #9FA195",
"S. c #989997",
"D. c #70716F",
"F. c #676768",
"G. c #787877",
"H. c #848485",
"J. c #87878C",
"K. c #9B9B9C",
"L. c #8C8D8E",
"P. c #888989",
"I. c #6F6F70",
"U. c #9D9D9B",
"Y. c #9D9D9C",
"T. c #A5A79A",
"R. c #848483",
"E. c #89898A",
"W. c #878786",
"Q. c #A4A599",
"!. c #797978",
"~. c #A0A296",
"^. c #949493",
"/. c #A4A697",
"(. c #8B8B8C",
"). c #8D8D8D",
"_. c #838381",
"`. c #828381",
"'. c #828281",
"]. c #858583",
"[. c #848583",
"{. c #6E6E6F",
"}. c #797A78",
"|. c #717171",
" X c #7E7E7F",
".X c #868685",
"XX c #8C8C8D",
"oX c #A3A598",
"OX c #969795",
"+X c #979796",
"@X c #919190",
"#X c #A0A295",
"$X c #949492",
"%X c #999A99",
"&X c gray44",
"*X c #727273",
"=X c #7D7E7C",
"-X c #6F706E",
";X c #979795",
":X c #A6A899",
">X c #8E8F90",
",X c #7B7B79",
"<X c #6E6F6E",
"1X c #9EA094",
"2X c #6F6F6D",
/* pixels */
"# # # * = % % % % % % 3 , $ $ ; @             O + # # * = % % z 8 5 5 x 0 $ $ $ $ $ $ X . # # + O     O + # # # # # # * = % % % ",
"# # # * = % % % % % % 3 , $ $ ; @             O + # # * = % % z 8 5 5 x 0 $ $ $ $ $ $ X . # # + O     O + # # # # # # * = % % % ",
"# # # * = % % % % % z 2 < $ $ - @             O + # # * = % % e 8 F.( / 0 d $ $ $ $ $ X . # # + O     O + # # # # # # * = % % % ",
"# # # * 3 3 3 3 y y y <.p - - Z n O O O       c b . . g ..2 3 G.D.t.2Xm l - ; ; ; ; - , & L L * i o o 6 & # # # # # # * 3 3 3 3 ",
"# # # . l < , 0.` h h ' ,.@ @ n . + + f O     1 , X X X < , , S.' 2.2.1X>X@ @ @ @ @ @ o {.M.^ t  .7 > D * # # # # # # . l < , , ",
"# # # . X d $ w T K M s q     O + # # + O     @ - $ $ $ $ $ $ w T M M s q             9 t 5 5 8 e % % = * # # # # # # . X d $ $ ",
"# # # . X d $ w a r K s q     O + # # & O     @ - $ $ $ $ $ $ w T K M s q.            9 t ( 5 8 e % % = * # # # # # # . X $ $ $ ",
"* * * g l < , :.oXj s 6.B     c b . . b n @ @ ~ p < , , 0 0 0 e.` h h A.XXO O O O O c i |.x x P 7 3 !.3 # & & & # # # . 0 X X X ",
"= = = H 2 3 2 ) %.q.q B       1 , X X X ; ; - p L 2 3 7 P x x P r.y y ,X& + + + + + + V I 0 0 0 , , < F S i i v & # # # . . . . ",
"% % % % % % m > :             @ - $ $ $ $ $ $ < 2 z % e 8 5 w.8 e % $.= * # # # # # # . X d $ $ $ $ $ ; O 6 6 i & # # # # # # # ",
"% % % % % % m > o             @ - $ $ $ $ $ $ < 2 m % e 8 ( 5 8 e % % = 9.# # # # # # . X $ $ $ $ $ $ ; O 6 6 i & # # # # # # # ",
"3 3 3 3 3 3 2 W i o o : 9 9 9 o F < , < ; ; - 0 ) > 7 H P x x P 7 3 2 ..`.A A A . . . 7.k - ; ; ; ; - < o i i v g & & & * * * * ",
", , , , , , < I W > 7  ./ t t / 7 3 2 ) u @ @ 1 [ : : O Z.0 0 0 , , , 0.o.O.O.o.*.X X k s.@ @ @ @ @ @ n f & & g i 6 6 4 D = = = ",
"$ $ $ $ $ $ d < 2 m % e 8 5 5 8 e % m > :             @ - d $ $ $ $ $ w a r r a w $ $ - @             O + # # & 6 o o -.> % % % ",
"$ $ $ $ $ $ $ < 2 z % e 8 w.5 8 e % m > o             @ - $ $ $ $ $ $ w a r r a w $ $ - @             O + # # & 6 o o i H % % % ",
"X X X X ; ; - p <.y y r.P x x P 7 3 2 W 6 O O O O O O n , X X X =.=.=.! J j j J ! ; - Z 1       O O O : # * * # 4 -.i f...2 3 3 ",
". . . b n @ @ ,.' h h ` e.0 0 0 , , < l V + + + + + + + . . . V S C o O B q q B @ @ @ 1       O f + + # 7 = = = H > H ..I < , , ",
"# # # & O     q s M K T w $ $ $ $ $ d X . # # # # # # # # # # & v i i i c                     O + # # * = % % % % % % 2 < d $ $ ",
"# # # + O     q s K r a w $ $ $ $ $ $ X . # # # # # # # # # # & v i i 6                       c + # # * = % % % % % z 2 < $ $ $ ",
"+ + + f O     B 6.s j J +.X X X ; ; - , . # # # g . . g & & & g 4 v v v : o o : 9 9 9 9 9 9 9 v # * * Q D > > 7 2 3 2 L p - ; ; ",
"O O O O         B q E Y X.. . b n @ @ n + # # g h.R R 5.o 6 6 i g & & # 2 > 7  ./ t t t t t t _ % = = D ] o : O 0 < < p ~ @ @ @ ",
"                      } & # # & O     O + # # . R l l I 3.o o 6 & # # * = % % e 8 5 5 5 5 5 5 8 z % % > o     @ - $ $ - @       ",
"                      O + # # & }     O + # # g R l l I 3.o o 6 + # # * = % % e 8 F.C.C.5 5 ( 8 e % % > :     @ - $ $ - @       ",
"O O O O         O O O o V . . X.Y E E Y V g g V 5.R R 5.6 -.-.4 9.L L L 3 3 3 G.D.t.-Xt.x x x P H 7 > { o     1 Z - - Z 1       ",
"+ + + f O u u O f + + V 0 X X +.J j s b.$Xc.>.h.V g . & 2 > > = t ^ M.&X>.< , S.' 2.2.A.+X0 0 Z.O : : o         1 @ @ 1         ",
"# # # & C u u C & # # . X $ $ w a r r :XOXI I >.g # # * = % % e 8 5 ( x 0 d $ w T M M T w $ d - @                               ",
"# # # & C u u C + # # . X $ $ w T M M @.;XI l >.. # # * = $.% e 8 5 ( x 0 d $ w a r r a w $ $ - @                               ",
". . . V S C C S f + & b , - ; ! v.h h ' @Xn.n.).& * * Q 1.y y V.P _ _ *Xl - ; ! J j j J +.X X , 1                       1 @ @ @ ",
"X X X 0 V & + f S C C O 1 @ @ u N.y y V.<X_ _ x % = = 1.B.h h #X^.m.m.c.~ @ @ @ B q E Y X.. . b c                     1 Z - ; ; ",
"$ $ $ X . # # + C u u u       : > z % e 8 5 5 8 z % $.y h #.M @.%Xk k p G             } & # # + O                     @ - $ $ $ ",
"$ $ $ X . # # + O u u u       o > m % e 8 5 5 8 e % z y h M r @.:.k k p G             O + # # + O                     @ ; $ $ $ ",
"; ; - , b + + f a.S 6 6 : : o i W 2 3 7 ^ 8 8 ^ 7 3 2 <.' s j x., &.p 4.~ 1 1 1       O + # # + o O O c 1 @ @ @ B q q | X ; ; ; ",
"@ @ @ 1 c O O 6 3 > 7 7 7 7 > W I < < R 7 e e 7 R < < p ,.q q B 1 G G ~ p k k p 1     O + # # # + + + b , - ; ! J j s l.| @ @ @ ",
"              o > % % % % % m 2 < d d < 3 % % 3 < d $ - @             1 k X X k 1     O + # # # # # # . X $ $ w a r K s q       ",
"              o > m % % % % m 2 < $ $ < 2 z z 2 < d $ - @             1 < X X < 1     O + # # # # # # . X $ $ w a r K s q       ",
"        o : o i W 2 3 2 7 > > ) 0 - - p L 2 2 L l X X , n O O O O O O u z.l l z.O : o 6 R.A A A . . . 7.k - ; ! J j s 6.B       ",
"      o { > > W I < < 0 O : : [ 1 @ @ ~ p < < l 7.. . . + + + + + + + U 3 2 2 2 7 > > N.8.;.O.o.*.X X k s.@ @ @ B q q B         ",
"      : > % m 2 < d $ - @             @ - $ d X . # # # # # # # # # # * = % % % % % z y h #.r a w $ $ - @                       ",
"      : > % m 2 < d $ - @             @ - $ d X . # # # # # # # # # # * = $.% % % % z y h M r a w $ $ - @                       ",
"      o { > > W l X X , 1       O O O   0 < < l g * * * Q L L Q * * * Q 1.y y y 3 3 2 <.v.a a T.p.; - Z 1       O O O O O O O O ",
"        o : o 6 V . . b c     O f + + U 3 2 3 2 H = = % t ^ ^ t % = = 1.B.h h ` 0., , < U.d.w p.u.@ @ 1 O o o 6 f + + + + + + + ",
"              O + # # + O     O + # # * = % % % % % % z 8 5 5 8 z % $.y h #.K T w $ $ $ $ $ $ ; @       o o o 6 & # # # # # # # ",
"              O + # # + O     O + # # * = % % % % % % e 8 w.5 8 e % z y h #.r a w $ $ $ $ $ $ - @       o o o 6 & # # # # # # # ",
"9 9 9 9 : o o 6 f + + f O     O U * * Q H = = H }.y y r.P x x P 7 3 2 =X8.;.O.o.*.X X X ; ; - Z 1     c 6 6 6 i f & & + + + + + ",
"t t t /  .7 > 3 6 O O O       o 2 = = H * # * _.8.h h ` e.0 0 0 , , < l .XA A A . . . b n @ @ 1 [ : : 6 f & & f a.o o o O O O O ",
"5 5 5 8 e % % > o             : > % % = # & & ]./.#.K T w $ $ $ $ $ d X .  X# # # # # & O       : : : 9 & # # & o O O O         ",
"5 5 5 8 e % m > :             : > m % = * & U [.;.M r a w $ $ $ $ $ $ X . # # # # # # + O       : : : 9 & # # & S O O O         ",
"t t t / 7 3 2 ) u @ @ 1       [ ) 2 2 ... V V W.` s j J +.X X X ; ; - , b + + + # # # & 6 o o : 9 9 9 ] g & & f o O O O o : : : ",
"9 9 9 o F < , < ; ; - Z 1     1 0 < , < X X X < ,.q E Y X.. . b n @ @ 1 c O O o + # # * D > > 2 # & & g ] 9 9 6 c     o { > 7 7 ",
"      @ - $ $ $ $ $ $ - @     @ - $ $ $ $ $ $ - @     } & # # & O             O + # # * = % % = * # # & 9 : : :       : > % % % ",
"      @ ; $ $ $ $ $ $ - @     @ - $ $ $ $ $ $ - @     O + # # + O             O + # # * = % % = * # # & 9 : : J.      o > % % % ",
"q q q | - $ $ $ - ; - Z 1     1 Z - ; ; ; ; - Z 1     O f + + . u 1 G 1 B q E Y . + + U 2 > > D Q * * # f.v v ] [ O O 6 D = = = ",
"j j j Q.Y.$ $ - u.1 @ 1         1 @ @ @ @ @ @ 1         O O O u 4.p &., x.j s g.Y O O O o : o ] D = = = H > > D U + + & * * * * ",
"r r r a d.$ $ ; 1                                             1 p k k :.@.r K s E             o > % % % % % % = * # # # # # # # ",
"r r r a w $ $ - @                                             G p k k :.@.r M s q             o > % % % % % % = 9.# # # # # # # ",
"j j j J ! ; - Z 1       6 9 9 9 : o : o O O O c 1 @ @ @ G G G ~ 4.&.&., b.k.k.g.L.c c c O O O 6 D = = = > 7 > 2 '.A A A . . . . ",
"q q q B @ @ @ 1       6 I.t t /  .7 > 2 U + + b , - ; =.F F F i.Y %.%.u E.j.j.P.4 4 4 N g + + & * * * # 9 o : (.~.;.O.o.*.X X X ",
"                      9 t ( 5 8 e % % = * # # . X $ $ K.k p p F u O O o 4 4 4 4 N N N y.U # # # # # # + O     q.s M r a w $ $ $ ",
"                      9 t 5 5 8 e % % = * # # . X $ $ $ k p p F %.O O O v 4 4 4 N N N y.U # # # # # # & O     q s K r a w $ $ $ ",
": : : o         O O c v _ 8 8 ^ = 7 > D * # # . 0 X X < F F F i.O S o S 4 4 4 4 N N N H.g & & + . . . b n @ @ | l.s j J +.X X X ",
"7 7 > { o     O f + + # % z e = v o o 6 & # # # . . . b   G G u f & & g N 4 4 4 4 4 4 4 S o S 3., X X X ; ; ; X | q E Y X.. . . ",
"% % % > :     O + # # * = % % 7 o     O + # # # # # # + O     O + # # & N 4 4 4 4 4 4 v O O O n ; $ $ $ $ $ $ ; @     } & # # # ",
"% % % 7 :     O + # # * = % % 7 :     O + # # # # # # + O     O + # # & N 4 4 4 4 4 4 v C O O n ; $ $ $ $ $ $ ; @     O + # # # ",
"% % % 7 :     O + # # * = % % 7 :     O + # # # # # # + O     O + # # & N 4 4 4 4 4 4 v C O O n ; $ $ $ $ $ $ ; @     O + # # # "
};
