/* XPM */
static char *_91f570be99f452acc659453efc1d1faWVffUZDD3vRcaggQ[] = {
/* columns rows colors chars-per-pixel */
"32 32 91 1 ",
"  c #2E0102",
". c #310402",
"X c #360903",
"o c #3C0D04",
"O c #3E1005",
"+ c #400F03",
"@ c #431201",
"# c #4A1704",
"$ c #4C1A04",
"% c #42160B",
"& c #4D1F0B",
"* c #521E03",
"= c #511F08",
"- c #4D200C",
"; c #562104",
": c #5E2704",
"> c #5F2804",
", c #552309",
"< c #642C06",
"1 c #68320D",
"2 c #77380C",
"3 c #7E3D0E",
"4 c #673310",
"5 c #803F0D",
"6 c #83410D",
"7 c #8A470F",
"8 c #89490A",
"9 c #924F0A",
"0 c #95520A",
"q c #9C560B",
"w c #9F5A0B",
"e c #8F4B10",
"r c #9E5A11",
"t c #A35C0C",
"y c #A25C10",
"u c #9F6116",
"i c #A7600D",
"p c #A9610D",
"a c #A56211",
"s c #AB6412",
"d c #AC6B18",
"f c #B16711",
"g c #B56A12",
"h c #B96E12",
"j c #B76F18",
"k c #BE7214",
"l c #BA7218",
"z c #C37514",
"x c #C77915",
"c c #C87A15",
"v c #C37718",
"b c #C57919",
"n c #CC7E19",
"m c #BD843B",
"M c #CF811B",
"N c #D1831B",
"B c #D8871A",
"V c #DB891B",
"C c #DE8B1B",
"Z c #DF8D1B",
"A c #DB8C1F",
"S c #DF8D1C",
"D c #E08D1B",
"F c #E08D1C",
"G c #E3901D",
"H c #E4911D",
"J c #DF8F20",
"K c #C0863B",
"L c #C98D3D",
"P c #CE913E",
"I c #D0933D",
"U c #D3953F",
"Y c #D4953F",
"T c #DB9A3E",
"R c #DC9B3F",
"E c #DE9D3F",
"W c #E39222",
"Q c #E49221",
"! c #E29326",
"~ c #E39527",
"^ c #D09543",
"/ c #DF9E40",
"( c #DB9D44",
") c #DE9F45",
"_ c #E09F40",
"` c #DEA045",
"' c #E4A141",
"] c #E3A346",
"[ c #E3A447",
"{ c #E4A446",
"} c #E3A64B",
/* pixels */
"zzzzzkttkzzzzkttaazzzzzzsattkztt",
"xxxxczttkzxxczptaazcxxzzaaipzztt",
"SZZZZBttzcCFFVzhtiBFFCxktiBCZBiw",
"SFWWQAitsgnNCCnvttBCNnczttBFWApw",
"xn/]{Ts0#o@=hnETatzh=,MVttkb/Taw",
"kvE[}(s9X  otl)(stfyXOlnpthv`(st",
"tpA~[(d0X o@o,^)s0#o  O=skts(`bk",
"wiVQ'Tu8o.@@ %PRs9o    orstaT/bz",
"wpVHQM&X@@@@@;NSp9o o@@@o#0pAJxz",
"wpVHHn@ @@@@@;NCp9o @@@@.o9pVDcx",
"wpVHHn% @@@@@;NCp9o @@@@@$0pVGSZ",
"wpVHHn% @@@@@;nBp9o @@@@@$8wVHGG",
"wpVHHn@ @@@@@*hzt9o @@@@@@$<NHGG",
"wpVHHN,%@@@@*<gzt0-%@@@@@@@;NQGG",
"wpVHGWUm;@@*kMzktaLm;@@@@@@,I'WG",
"wpVHGW'U4,;<NSnvpsEY4,,,;;,4U'WG",
"wpVHGGQ!UINNcnETbzJ!U^^INNI^!WGG",
"wpVHGFNMTTNnzb//jgVJ_`^IVVI^WGGG",
"wpVHHN,$rr$=gcWN=$hcnl,&ww&,NHGG",
"wpVFNlOX88XXthnlootgftoX88X+nHGG",
"wpCN,o  XX .$*@o .$*@o .$$ @nHGG",
"wpCn@      .@@.  .@@.  .@@.@kNFG",
"wpCn@ o@@@+@@@@@@@@@@@@@@@@@*<NH",
"wiBn,@@@@@,,@@@@**@@@@@@**@@@;nF",
"ttzcnl@.o,KK,@@*pp*@@@@*pp*@@*hc",
"ttkcFM%.*1YU,@*<gg<;;;@*sf<;;<fz",
"ttzcFM@okBWN;*znppnNNk*#3ebNNnpt",
"qthzCn##nFDn::nBttBFCn>*27NCFBtq",
"66tpzk33kcczq0ttttzzpt0956tpzk76",
"36qthh66gzzktttwqthhtwqq66qthh63",
"36qttw66wpzztwwq66tttq6636qttw63",
"36qttq66qtzztttq66qttq6336qttq63"
};
