/* XPM */
static char *f2c5700414864a5efc2745001be4d001O4oFJ92lU7GQi5iR[] = {
/* columns rows colors chars-per-pixel */
"32 32 151 2 ",
"   c #171618",
".  c #181718",
"X  c #1A1A1A",
"o  c #1E211D",
"O  c #20231F",
"+  c #252A22",
"@  c #30541F",
"#  c #335522",
"$  c #395326",
"%  c #375A25",
"&  c #385C26",
"*  c #3B5629",
"=  c #375D2A",
"-  c #3B5D2A",
";  c #396427",
":  c #3D642C",
">  c #3E692E",
",  c #3C6630",
"<  c #3D6831",
"1  c #41662E",
"2  c #42682F",
"3  c #4C6B2F",
"4  c #426531",
"5  c #436C35",
"6  c #4D6D30",
"7  c #476D39",
"8  c #457333",
"9  c #4A7435",
"0  c #4D7B36",
"q  c #467038",
"w  c #4B7239",
"e  c #4E7C3D",
"r  c #517C3C",
"t  c #547F41",
"y  c #597A47",
"u  c #5C7C4A",
"i  c #4E8037",
"p  c #4F813A",
"a  c #57913C",
"s  c #59953D",
"d  c #538042",
"f  c #5D8646",
"g  c #578A40",
"h  c #5A8D42",
"j  c #5F814E",
"k  c #5F8848",
"l  c #5D9245",
"z  c #5D9244",
"x  c #5D9144",
"c  c #5B9341",
"v  c #61844F",
"b  c #67874E",
"n  c #62844C",
"m  c #658B4D",
"M  c #698B4E",
"N  c #638351",
"B  c #618450",
"V  c #628450",
"C  c #628451",
"Z  c #638451",
"A  c #638551",
"S  c #638651",
"D  c #648451",
"F  c #648651",
"G  c #648552",
"H  c #658552",
"J  c #648652",
"K  c #648752",
"L  c #658752",
"P  c #658754",
"I  c #648652",
"U  c #688655",
"Y  c #688755",
"T  c #698755",
"R  c #698756",
"E  c #6A8652",
"W  c #658852",
"Q  c #668852",
"!  c #638C52",
"~  c #648D54",
"^  c #658D54",
"/  c #658E54",
"(  c #668F55",
")  c #678C53",
"_  c #6B8C50",
"`  c #6B8D51",
"'  c #6C8E51",
"]  c #688954",
"[  c #698A54",
"{  c #698A55",
"}  c #6A8B55",
"|  c #698856",
" . c #6A8857",
".. c #698C55",
"X. c #698C56",
"o. c #698D56",
"O. c #6A8C56",
"+. c #6A8D56",
"@. c #6B8E57",
"#. c #6B8F57",
"$. c #6C8F57",
"%. c #6B8D54",
"&. c #6C8F58",
"*. c #669056",
"=. c #679056",
"-. c #679157",
";. c #669051",
":. c #689056",
">. c #689057",
",. c #689157",
"<. c #6C9157",
"1. c #6D9257",
"2. c #6B9454",
"3. c #6D9856",
"4. c #6B9359",
"5. c #6C9359",
"6. c #6F9258",
"7. c #6E9259",
"8. c #6F9359",
"9. c #6C935A",
"0. c #6D935A",
"q. c #6F935A",
"w. c #6F9458",
"e. c #6C945A",
"r. c #6D945A",
"t. c #6D945B",
"y. c #6D955B",
"u. c #6E945A",
"i. c #6E955B",
"p. c #6F955C",
"a. c #6E965C",
"s. c #70935A",
"d. c #709559",
"f. c #70945A",
"g. c #70955A",
"h. c #71955B",
"j. c #71965B",
"k. c #72975B",
"l. c #70955C",
"z. c #70955D",
"x. c #72955C",
"c. c #72965C",
"v. c #72975C",
"b. c #73935B",
"n. c #73985C",
"m. c #769A62",
"M. c #779A63",
"N. c #789A64",
"B. c #799C65",
"V. c #799C64",
"C. c #7A9C66",
/* pixels */
"8 8 8 8 5 5 5 5 9 9 9 9 < < < < - - - = : : : , 5 5 5 5 5 5 4 7 ",
"8 8 8 8 5 5 5 5 9 9 9 9 < < < < - - - - : : : , 5 5 5 5 5 5 4 7 ",
"8 8 8 8 5 5 5 5 9 9 9 9 < , < : - = = - : : : : 5 5 5 5 5 5 4 7 ",
"8 8 8 8 5 5 5 5 9 9 9 9 < < < < : : : : < < < < 5 5 5 5 5 5 4 7 ",
"5 5 5 5 5 5 5 5 5 5 5 5 e e e e a a a a h h h g 5 5 5 5 < < : 5 ",
"5 5 5 5 5 5 5 5 5 5 5 5 e e e p s s s s z z z h 5 5 5 5 < < : 5 ",
"5 5 5 5 5 5 5 5 5 5 5 5 e e e e a s s s c c c h 5 5 5 5 < < : 5 ",
"5 5 5 5 q q q q q q q q t d t d c c s c l l l h q 7 q 5 < < < 5 ",
"5 5 5 5 ! ( ( ( 4.4.4.y.m.m.m.m.f.f.f.f.y.y.y.9.f f f f e e e t ",
"5 5 5 5 ( :.( :.y.a.y.a.B.B.B.B.v.f.f.f.a.a.v.y.k f k f r e e d ",
"5 5 5 5 ( -.( ( y.y.y.a.B.B.B.B.v.f.f.f.a.a.a.y.k f f f r e e d ",
"7 5 5 q ( :.( :.9.y.y.y.m.N.N.m.b.9.9.9.a.a.v.9.f f f f r e e d ",
"Z Z v Z #.#.#.#.K Z Z K  . . .Y u u u u b.f.f.1.r r r r r r r t ",
"K Z Z K #.#.#.#.Z Z Z Z Y Y Y Y u u u u 9.f.f.1.r r r r r r r t ",
"Z Z Z Z #.$.$.#.W K K K Y Y Y Y u u y u f.f.v.y.r r r r r r r t ",
"K K K K K K K N u u u u Y  . .Y u u u u  . . .W 9 w w 9 r r r t ",
"#.#.#.K + X o o X o X + b ' ` ` 9.9.f. .+ X o o o o X + j Z v P ",
"#.#.#.K o . X X X X . O b ' M ` f.f.f. .o . X X X X . O v K Z Y ",
"#.#.&.K o   X X . X . O b 2.' ' f.f.n.#.o   X X X X   O v K Z Y ",
"#.) #.Z + o O O O O O + n b m b #.#.1.K + o O O o o o + u v j Z ",
"r r 0 r n n n v %.%.%.E * * * * * * * - m ) ) m 0 0 0 0 > : : 4 ",
"0 0 0 0 m M m ` b.b.b.$.* $ $ $ $ $ $ * 2.3.3.2.i i i 0 ; ; ; > ",
"0 0 0 r m m m ` b.b.b.%.* $ $ $ $ $ $ * 2.3.3.2.i 0 i 0 ; ; ; 2 ",
"0 0 0 0 m m m m $.%.$.E * * * * * * * * m ;.) m 0 0 0 0 ; ; ; 2 ",
"9 9 9 9 8 8 8 8 2 2 2 2 6 6 6 6 6 6 6 3 & & & - 8 8 8 8 : : : 5 ",
"9 9 9 9 8 8 8 8 2 : : 2 6 6 6 6 6 6 6 3 & % % & 8 8 8 8 : : : 4 ",
"9 9 9 9 8 8 8 8 2 : 2 2 6 6 6 6 6 6 6 3 & % % & 8 8 8 8 : : : 4 ",
"5 5 5 5 8 8 8 8 : : : 2 3 3 3 3 6 6 6 3 & % % & 2 8 8 5 : : : 4 ",
"# # # # # # # # % % % % & & & & : 2 2 : % % % & 2 2 2 2 - & & : ",
"# # # # # # # # % % % % % % % & : : : : & & % & 2 2 2 2 & & & : ",
"# # # # @ @ @ @ % % % % % % % % : : : : % % % % 2 2 2 2 & & & : ",
"& & & & % % % % - - - - - - - - 4 4 5 4 - - - - 5 5 5 5 : : : 4 "
};
