/* XPM */
static char *result[] = {
/* columns rows colors chars-per-pixel */
"32 32 60 1 ",
"  c #060503",
". c #080704",
"X c #0B0A06",
"o c #0D0C0A",
"O c #100D07",
"+ c #110E0B",
"@ c #15120B",
"# c #19150D",
"$ c #1F190E",
"% c #1E1911",
"& c #211A0F",
"* c #231C10",
"= c #2D2415",
"- c #312716",
"; c #312817",
": c #302618",
"> c #342A19",
", c #3A2E1B",
"< c #3D311C",
"1 c #42351E",
"2 c #47381F",
"3 c #423621",
"4 c #463822",
"5 c #4B3C23",
"6 c #524125",
"7 c #594527",
"8 c #594629",
"9 c #574829",
"0 c #5C4B2C",
"q c #624F2D",
"w c #66512E",
"e c #6A532F",
"r c #655232",
"t c #6C5633",
"y c #6F5831",
"u c #6D5738",
"i c #705731",
"p c #725933",
"a c #785F36",
"s c #82663A",
"d c #866A3D",
"f c #8A6C3D",
"g c #8F703F",
"h c #866F41",
"j c #8D7545",
"k c #947543",
"l c #937947",
"z c #9B7A46",
"x c #967B49",
"c c #997E4B",
"v c #9D814B",
"b c #A2854E",
"n c #A58653",
"m c #A98754",
"M c #A58852",
"N c #AD8D54",
"B c #AF8C58",
"V c #B18F5A",
"C c #B5925D",
"Z c #BA955F",
/* pixels */
"qpbNbkyelckheicBbzyefkvlepbNbxeq",
"qpbNbzyycnckianVbzpigxbxypbNbxiq",
"wpbNbzyyccBmsdBVMzsscvVMppbNbziw",
"wpbNbkyyxmZBddBVMcddcnCMppbNbgiq",
"wpbNMvtymCZCaaBZMvkkvbMvypbNMveq",
"0wlvlfwrcmcctrxcljffjjjfwejvlgw8",
"<<9996<158851380864266661199961<",
"<10rq91<7q8513qr09<<670911qw09<,",
"<1qwq9<<00q055qrq04490r0110rr9<<",
"<1qrq92<0qur65ruq05600ur11qr00<<",
"<2qrq9110rur55ruq0660qrq11wr001<",
"<<qrq911ruur33ruq09900q912qrr9<<",
"=;<44<;;3543::3433<<<<<<;;<4<<;=",
"$$;>;=&*====%*;;==%%==>=&&>>;=&$",
"$*>>>==%=>==&&;>;==$==>=&=>>;;&$",
"$*>>;=$%=>,>==>,>==*=;,>%$>>;;&$",
"&&>>--*&:>,>:*,,>;==;;<>**>,;;*$",
"&*>>--**>,,>**>,>;==;;;=**;,;=*$",
"&&=:-=&&:>>:**:>==*=====&*=;==$$",
"OO###@OO####++###@@O@@#@OO####OO",
"OO###@OO##++++###@OO#@O#OO###@OO",
"OO###@OO####++###@OOO###OO###@OX",
"OO###+OO@###++@%#@OO#@$#OO###@OO",
"OO####OO##&#+o%%##@@####OO@##@OO",
"##%*%%@@%%%%%+%%%%@%%%@%O@#%%#++",
"++@@+@+++%%@+++%@@+++@+@OO@@@+o+",
"oooo+oooooooooo+oooooo+oooo+oooo",
"ooo+++oo++++ooo+++ooo+++ooo++ooo",
"oo+ooooo+o++oooo++oo++++oo+o++oo",
"ooo+++oooo+o+o+oo+ooooo+oo+o+ooo",
"  .ooo..oo.ooo.ooooooooooooooo.o",
"   .    ....  .....o............"
};
