/* XPM */
static char *_bb23940e8234457cb42c0f0b5d605c79yGwXbx5MmSerdpB[] = {
/* columns rows colors chars-per-pixel */
"32 32 222 2 ",
"   c #020200",
".  c #0B0202",
"X  c #0D0D09",
"o  c #120300",
"O  c #14080A",
"+  c #18140F",
"@  c #251A16",
"#  c #34261A",
"$  c #5E351F",
"%  c #5D3C2D",
"&  c #5A3626",
"*  c #5D3D30",
"=  c #443727",
"-  c #633A25",
";  c #633C2A",
":  c #653726",
">  c #7A3D26",
",  c #7E3D2A",
"<  c #763D29",
"1  c #613F32",
"2  c #534336",
"3  c #67422D",
"4  c #7C432B",
"5  c #7B452F",
"6  c #654333",
"7  c #694434",
"8  c #6C4A3A",
"9  c #684938",
"0  c #7A4530",
"q  c #7C573C",
"w  c #7D593F",
"e  c #5C4E41",
"r  c #7C5942",
"t  c #7B5D4A",
"y  c #775644",
"u  c #6B5347",
"i  c #7D624D",
"p  c #7F6650",
"a  c #465960",
"s  c #756F62",
"d  c #6E7474",
"f  c #863F29",
"g  c #863D28",
"h  c #83432E",
"j  c #824127",
"k  c #844532",
"l  c #844A34",
"z  c #8C4932",
"x  c #894A38",
"c  c #8A4635",
"v  c #964C36",
"b  c #835634",
"n  c #845835",
"m  c #8F5F39",
"M  c #87523B",
"N  c #9B523C",
"B  c #9D5936",
"V  c #A35C3A",
"C  c #A1573A",
"Z  c #8E623F",
"A  c #90603A",
"S  c #AE643C",
"D  c #AF6A3C",
"F  c #B1663C",
"G  c #B16B3D",
"H  c #D2793F",
"J  c #835E44",
"K  c #825E4B",
"L  c #895F4D",
"P  c #A85944",
"I  c #84624D",
"U  c #8B664A",
"Y  c #8B684C",
"T  c #846454",
"R  c #886653",
"E  c #866957",
"W  c #8A6955",
"Q  c #8A6D5B",
"!  c #8D705E",
"~  c #906B59",
"^  c #AD6742",
"/  c #B46A42",
"(  c #BC6649",
")  c #BC6B4B",
"_  c #B56743",
"`  c #B5734D",
"'  c #BB7248",
"]  c #BD6D54",
"[  c #BC7452",
"{  c #BF735C",
"}  c #9C7864",
"|  c #917260",
" . c #A47C64",
".. c #B87C63",
"X. c #C5754B",
"o. c #C5794C",
"O. c #CB794C",
"+. c #CB7747",
"@. c #D57D4D",
"#. c #C36F57",
"$. c #CB7357",
"%. c #C57A54",
"&. c #C97C54",
"*. c #C5735B",
"=. c #CD7359",
"-. c #C5785A",
";. c #D8775E",
":. c #CB7561",
">. c #C57A63",
",. c #DD7B63",
"<. c #D87C67",
"1. c #E27E68",
"2. c #B8826A",
"3. c #A78A78",
"4. c #BB8972",
"5. c #B58B73",
"6. c #BC9574",
"7. c #B9957F",
"8. c #CB8258",
"9. c #D6885A",
"0. c #DC905C",
"q. c #D6945A",
"w. c #E7985C",
"e. c #F1985C",
"r. c #CA876C",
"t. c #D58E62",
"y. c #D48C6D",
"u. c #DA8769",
"i. c #DC9263",
"p. c #DA9668",
"a. c #DB9A74",
"s. c #D89979",
"d. c #CC9174",
"f. c #E2816A",
"g. c #E39A64",
"h. c #E4996A",
"j. c #E49D73",
"k. c #E99D7A",
"l. c #EAA467",
"z. c #E5A174",
"x. c #E3A27C",
"c. c #EAA37D",
"v. c #F0A17B",
"b. c #EDB37F",
"n. c #989892",
"m. c #BA9781",
"M. c #BC9A83",
"N. c #BF9C88",
"B. c #A9958D",
"V. c #AFA196",
"C. c #D19C83",
"Z. c #E99F82",
"A. c #DDA486",
"S. c #C9A690",
"D. c #D6AC97",
"F. c #DBB098",
"G. c #C7A48E",
"H. c #E9A483",
"J. c #EBAB84",
"K. c #E4AD8B",
"L. c #EBAC8B",
"P. c #E4A783",
"I. c #EDB38D",
"U. c #E5B489",
"Y. c #E3AD94",
"T. c #E7AE98",
"R. c #E4B596",
"E. c #EBB699",
"W. c #E5BA9E",
"Q. c #EBBA9D",
"!. c #E8B596",
"~. c #F3B593",
"^. c #F4BA9C",
"/. c #F9BB97",
"(. c #F4B389",
"). c #DEB6A3",
"_. c #E5BEA3",
"`. c #ECBDA4",
"'. c #E8B8A6",
"]. c #F6BDA5",
"[. c #F0BFB0",
"{. c #E8AEA0",
"}. c #EEC19F",
"|. c #EBC1A5",
" X c #E6C2AC",
".X c #EBC4AC",
"XX c #EDCAAE",
"oX c #E5C0A6",
"OX c #F1C3A5",
"+X c #F2C5AC",
"@X c #F3C9AE",
"#X c #F6C7A5",
"$X c #FBD0AE",
"%X c #E7C4B2",
"&X c #EBC4B2",
"*X c #EDC8B3",
"=X c #E7CAB9",
"-X c #F2CCB2",
";X c #F2CEBA",
":X c #F7C6B5",
">X c #EDD3BD",
",X c #EED0B4",
"<X c #F4D1B5",
"1X c #F5D2BB",
"2X c #F9D4BA",
"3X c #FADABC",
"4X c #EACEC1",
"5X c #FDCFC0",
"6X c #EED4C3",
"7X c #F4D2C2",
"8X c #FCD9C2",
"9X c #F5DDCA",
"0X c #FFE2CA",
"qX c #EFE2DC",
"wX c #FFF0D8",
"eX c #F9E6D5",
"rX c #F9EAE2",
"tX c #FCF3E7",
"yX c #FCFCF4",
"uX c #F4FDFE",
"iX c #FDFDFE",
"pX c #FAF4F5",
/* pixels */
"i t i T T T T T L L K K t t t t 7 7 7 7 7 7 7 7 9 6 9 6 6 * 6 % ",
"p i i T T T T T I I K K r y y y 6 6 6 6 7 7 7 6 6 6 9 6 6 % 7 1 ",
"t t t t T T T T I I I K r r r r 6 6 6 6 6 6 6 6 9 6 9 6 7 & % % ",
"E Q Q Q Q Q T I t t K K J J J J q q q q q q q q 8 3 9 7 9 6 6 6 ",
"T Q Q W R W W R i I I I I U U U Z Z Z Z Z Z Z Z r 7 7 6 7 % 6 % ",
"Q ! Q W R R W W U I I U U Y Y U m m m m m m A A J 3 3 7 8 6 9 9 ",
"Q E T R R I K K r r r r r r r w b b b b b n n n 7 $ - ; 7 & % 6 ",
"Q E | 3.m.N.M.m.m.m.7.m.M.M.M.M.6.6.6.6.6.6.6.6.5. . .} ~ 8 6 1 ",
"T W I S.0X1X3X3X8X3X3X3X9X9X9X9X1X1X3X2X2X2X3X3X#X~.~./.A.; 7 ; ",
"R R K G.8X.XXXXX-X*XXX,X>X6X6X>XXX-X-X@X@X-X-X-X`.K.L.~.C.: ; ; ",
"R I I S.8XXX-X2X;X<X<X<X1X6X6X>X-X-X@X@X@X@X-X-XOXK.I.^.C.- ; - ",
"} } } D.1XXX-X2X-X-X@X-X1X7X>X>X@X+X+X+X+X@X-X-X}.P.J.I.s.M M b ",
";X;X X;X2X.X.XoX_._.W.oX%X=X%X%XW.W.W._.|..XXXXXI.a.j.z.J.s.P.J.",
" X&X X.X.X*X;X*X_._._.oX X%X%X X!.R.R.Q.|.@X-X-X/.z.z.i.j.a.j.h.",
"&X&X.X&X.X.X*X'..XoX|..X&X&X&X.XQ.Q.Q.Q.OX@X-X-XK.a.c.j.c.x.j.j.",
" X X X-X-X-X-X.XF.F.R.W.'.%X%X.XQ.E.!.!.Q._._._.E.s.J.x.j.x.a.c.",
"+X+X=XrXiXpXiXn.X @ + = `.^.#X].OX}.OX1Xu + @ X s pXpXyXeXY.T.F.",
"*X*X=XqXiXuXiXn.  .   @ :X].|.Q..X|.|.8X2   X   s iXiXyXwXY.L.K.",
"*X=X4XrXiXiXiXn.  O   # :X].oX+XXX.X_.0Xe   X   a iXuXuXtXD.Y.F.",
".X.X*XeXyXpXtXV.. o . # {.].OX].+X@XOXXX9 o o . d pXiXyXtX).T.W.",
"E.I.T.+X7X4X7XD.3.B.3.3.d.y.r.r.d.y.y.d.4.3.3.3.d.~.(.U.b.t.9.9.",
"L.H.H.~.`.'.`.Q.*X5X7X_.] ( ` ) #.( ) ^ L.:X+X+Xb.w.e.w.q.@.+.+.",
"H.c.J.~.].`.Q.^. X{.).F.#.=.-.) ] $.9.[ A.E.Q.Q.U.i.h.l.p.%.&.&.",
"L.J.J.I.Q.|.`.OX*X[.1X`.*.( [ *.{ #._ [ A.#X$X}.!.h.e.l.g.O.@.H ",
"x.J.P.H.J.J./.s.2.4.4...r.=.$.=.=.$.=.<.>.2.r...8.j.g.g.g.O.X.O.",
"a.x.k.k.k.j.c.-.< < 4 z :.<.1.,.,.1.f.:.N > 4 > ^ t.0.0.9.X.X.O.",
"k.H.Z.k.v.k.k.-.h k h v <.f.,.,.;.;.1.<.P f x k V t.i.0.9.X.X.o.",
"x.Z.Z.k.v.k.v.&., k z N <.f.,.f.f.,.1.u.P h x , ^ p.g.i.9.o.o.X.",
"a.s.s.y.i.i.p.[ 4 4 4 z { :.*.*.*.#.:.>.N , l 5 V t.9.9.8.X.X.' ",
"` ` [ ^ D D / B h l 5 > z f f j j g f z h 5 l 0 C &.o.o.o._ / F ",
"' ` %._ G G ` B h k M l k , k l l c , h l l l > C %.o.X.X.S S S ",
"' ) %._ F G / B c , k k c k x 5 5 M c k k h h h C %.o.o.&.F S _ "
};
