/* XPM */
static char *_b8f4c40daa843e29502f5f9922faa11iFSpta3NjS8B3hFd[] = {
/* columns rows colors chars-per-pixel */
"32 32 152 2 ",
"   c #251909",
".  c #2B1E0D",
"X  c #2F200D",
"o  c #31220F",
"O  c #2E2212",
"+  c #342513",
"@  c #3B2712",
"#  c #372916",
"$  c #3C2914",
"%  c #3D2D1A",
"&  c #412A13",
"*  c #412E1B",
"=  c #41301C",
"-  c #4B321C",
";  c #673D2E",
":  c #693F2F",
">  c #6A3F30",
",  c #6E442B",
"<  c #70462D",
"1  c #70482F",
"2  c #6D4232",
"3  c #764235",
"4  c #794436",
"5  c #724931",
"6  c #7A4E33",
"7  c #7B4638",
"8  c #744938",
"9  c #7E5135",
"0  c #7D5238",
"q  c #815335",
"w  c #82543A",
"e  c #85593E",
"r  c #8E5D3E",
"t  c #925D3E",
"y  c #865940",
"u  c #8D5C41",
"i  c #925E42",
"p  c #976041",
"a  c #9B6345",
"s  c #966549",
"d  c #9C6649",
"f  c #9C6A4D",
"g  c #9D6C51",
"h  c #9D735D",
"j  c #A06744",
"k  c #A16946",
"l  c #A46C49",
"z  c #A4704F",
"x  c #A16E53",
"c  c #A67254",
"v  c #A87353",
"b  c #A2755C",
"n  c #AC765A",
"m  c #AF785C",
"M  c #B0775E",
"N  c #B1795E",
"B  c #AC7665",
"V  c #A57961",
"C  c #AA7D66",
"Z  c #AF7769",
"A  c #A47869",
"S  c #AC7E6B",
"D  c #B07763",
"F  c #B37B64",
"G  c #B37C6A",
"H  c #B87D68",
"J  c #B17E74",
"K  c #AD8266",
"L  c #AD816D",
"P  c #B78167",
"I  c #BA8467",
"U  c #B4846C",
"Y  c #B9856C",
"T  c #B6896D",
"R  c #B98B6E",
"E  c #B28373",
"W  c #B98472",
"Q  c #B78970",
"!  c #B78973",
"~  c #B98871",
"^  c #BA8970",
"/  c #BB8970",
"(  c #BB8B71",
")  c #BB8972",
"_  c #BD8B72",
"`  c #BC8A73",
"'  c #BE8B72",
"]  c #BB8C71",
"[  c #BD8D73",
"{  c #BF8C73",
"}  c #BD8E72",
"|  c #BF8F73",
" . c #BE8F73",
".. c #B88B76",
"X. c #B98C77",
"o. c #BD8D74",
"O. c #BF8D74",
"+. c #BD8E74",
"@. c #BC8E74",
"#. c #BF8F75",
"$. c #BC8B73",
"%. c #BA8E79",
"&. c #BE8F79",
"*. c #BF9073",
"=. c #BF9076",
"-. c #BF907B",
";. c #C08A6D",
":. c #C09074",
">. c #C3937D",
",. c #C3947E",
"<. c #C4947F",
"1. c #C5967F",
"2. c #4D3786",
"3. c #4D3886",
"4. c #4F3A89",
"5. c #543D85",
"6. c #553E85",
"7. c #573F84",
"8. c #503C8B",
"9. c #5F4584",
"0. c #5E4586",
"q. c #594187",
"w. c #574189",
"e. c #574188",
"r. c #5A448C",
"t. c #5F4A8C",
"y. c #614785",
"u. c #624B8C",
"i. c #624F95",
"p. c #625095",
"a. c #685392",
"s. c #6A5491",
"d. c #C69680",
"f. c #C79781",
"g. c #C89782",
"h. c #C89882",
"j. c #ECE7EC",
"k. c #EBE5E9",
"l. c #F0E7E3",
"z. c #F1EAE6",
"x. c #F5EFEC",
"c. c #F3ECEB",
"v. c #F3EFF0",
"b. c #F0EFF6",
"n. c #F1F0F7",
"m. c #FBF7F5",
"M. c #F9F5F3",
"N. c #FCF8F6",
"B. c #FAF8F8",
"V. c #FBF9F8",
"C. c #FEFBF8",
"Z. c #FEFEFF",
/* pixels */
"X X X X . . . . . . X X . . . .                 . . . . . . . O ",
"X X X X . . . . . . X . . . . .                 . . . . . . . O ",
"X X X X . . . . . . . . . . . .                 . . . . . . . O ",
"X X X X . . . . . . X . . . . .                 . . . . . . . O ",
". . . . . . . . . . . . + + + + $ & & & $ $ $ $ . . . . . .   O ",
". . . . . . . . . . . . + + + + & & & & & & & $ . . . . . .   O ",
". . . . . . . . . .   . X X X o @ $ $ $ $ $ $ @ . . . .   .   O ",
". . . . # # # # # # # # % % % * - - - - - - - - # # # # . . . O ",
". . . + V U K U T T T T -.-.-.&.U U U U T T ! U c c c g # + + # ",
". . . # K R T R | *.| :.f.g.h.f.O.| | | O.O.=.| m n N x # + + # ",
". .   + K R T T | | | | <.f.f.<.| ` ` ` O.O.O.~ n n m x # + + # ",
"# # + % K R T T ] ] ] | ,.<.<.>.~ ~ ~ ~ O.O.O.` n n n x * $ $ = ",
"V V V V U U U U C C C C L L L L h h h b ~ ~ ` Y f f f f s s s f ",
"C C C S U U U U C C C C S L L S h h h h W ~ ~ U f f f f f f f x ",
"C C C C U U U U C C C C L L L S h h h h ~ ` ` Y f d d d d d d g ",
"C C C S X.%.%.X.A A A A S L L S h h h b E E E E b b b b f f f g ",
"U U U ..x.V.C.j.t.6.w.9.G F G H W ~ ~ E 9.w.6.a.v.m.V.z.L C C S ",
"U U U X.m.Z.Z.b.r.4.8.q.Z F G H ~ ~ ` E w.8.3.p.B.Z.Z.M.L C C L ",
"U U U X.B.Z.Z.n.r.4.4.q.G H H H ` ` | E w.8.2.i.B.Z.Z.M.L C C L ",
"U U U ! c.m.N.k.u.q.q.y.B D B D U U U S y.q.6.s.c.M.M.l.S V V C ",
"d d d d P Y P U J J J S 8 2 2 2 2 2 2 8 U Y Y P v v v z w w q e ",
"a a a d M D N D W W W G 2 : : : : : ; 2 I ;.;.I k j k a q 9 9 w ",
"a a a d D F F F W W W G 2 : 2 2 2 2 : 8 I ;.;.Y l k l k q q q w ",
"a a a d m N N D G G G B 2 > 2 2 2 2 : 8 F P P F k k k d q q q w ",
"i i i i p p p i 7 4 7 4 3 3 3 3 3 3 3 3 4 4 4 7 r t t r q q q e ",
"i i i i i t i t 4 3 3 3 3 3 3 3 3 3 3 3 3 3 3 4 r r r r q q q e ",
"i i i i p p p i 4 4 4 3 3 3 3 3 3 3 3 3 3 3 3 4 r t t r w q q e ",
"u u u u t t t t 4 4 4 4 4 4 4 4 3 3 3 3 4 4 4 4 r r r r q q q w ",
"< < < < , , , < q q q q q q q q 6 6 6 6 w w w w w w w w 6 6 6 0 ",
", , , , , , , , q w q q q q q q 6 6 6 6 w w w w w w w w 6 6 6 0 ",
", , , , , , , , 9 q q q q q q q 6 6 6 6 w w w w w w w w 6 6 6 9 ",
"5 5 5 5 1 < < 5 w e e e e e e w 0 0 0 0 e y y y y y y e 0 0 9 w "
};
