/* XPM */
static char *f0d9a1498b19444b8e335e2ab3949d7eanmB3kF0jftUwJNH[] = {
/* columns rows colors chars-per-pixel */
"64 64 108 2 ",
"   c gray20",
".  c gray37",
"X  c gray55",
"o  c gray22",
"O  c #373737",
"+  c #989898",
"@  c #535353",
"#  c gray34",
"$  c gray39",
"%  c #323232",
"&  c #3E3E3E",
"*  c #585858",
"=  c #909090",
"-  c #979797",
";  c DimGray",
":  c gray21",
">  c #313131",
",  c #626262",
"<  c gray35",
"1  c #5D5D5D",
"2  c #929292",
"3  c gray14",
"4  c gray27",
"5  c gray13",
"6  c #393939",
"7  c #515151",
"8  c gray32",
"9  c #505050",
"0  c #222222",
"q  c gray54",
"w  c #868686",
"e  c gray33",
"r  c #5F5F5F",
"t  c #555555",
"y  c gray36",
"u  c gray38",
"i  c gray57",
"p  c #565656",
"a  c #282828",
"s  c #646464",
"d  c #676767",
"f  c #3C3C3C",
"g  c gray16",
"h  c gray23",
"j  c gray19",
"k  c #232323",
"l  c gray30",
"z  c gray56",
"x  c #5B5B5B",
"c  c gray31",
"v  c gray26",
"b  c #2F2F2F",
"n  c #5A5A5A",
"m  c #4E4E4E",
"M  c #3F3F3F",
"N  c #3A3A3A",
"B  c gray24",
"V  c gray53",
"C  c gray52",
"Z  c #606060",
"A  c #414141",
"S  c gray51",
"D  c #888888",
"F  c gray15",
"G  c gray17",
"H  c gray59",
"J  c #6A6A6A",
"K  c gray49",
"L  c #484848",
"P  c #686868",
"I  c #272727",
"U  c #8B8B8B",
"Y  c #838383",
"T  c #808080",
"R  c gray60",
"E  c gray28",
"W  c #353535",
"Q  c #434343",
"!  c #818181",
"~  c #898989",
"^  c #4C4C4C",
"/  c gray40",
"(  c gray29",
")  c #2A2A2A",
"_  c #848484",
"`  c #2D2D2D",
"'  c #343434",
"]  c gray43",
"[  c #7E7E7E",
"{  c #656565",
"}  c #727272",
"|  c #4B4B4B",
" . c gray50",
".. c #2C2C2C",
"X. c gray25",
"o. c #8D8D8D",
"O. c #7B7B7B",
"+. c #8E8E8E",
"@. c #797979",
"#. c #959595",
"$. c gray48",
"%. c #464646",
"&. c #777777",
"*. c #6C6C6C",
"=. c #444444",
"-. c #767676",
";. c gray46",
":. c #6D6D6D",
/* pixels */
"# # # @ O                             O @ # # y ! w w S d $ $ , * # # . = - - = . # # @ O             O @ # # t E 4 4 4 4 4 4 4 ",
"# # # @ O                             O @ # # y ! w w S d $ $ , * # # . = - - = . # # @ O             O @ # # t E 4 4 4 4 4 4 4 ",
"# # * @ O %             % % % %     % O 8 # p y ! V V S d , $ u < # # r = + + = . p # 8 O %           O @ * # t E 4 4 4 4 4 4 4 ",
"@ @ @ 9 h o o o o o o 6 & & & & 6 o o B n r . , [ S S  .J d d { t @ 8 n +.H H z { . r n B o 6 o % > > W c @ @ 7 E 4 4 4 4 4 4 4 ",
"O O O h e * * < 1 . 1 $ w X X w $ 1 1 $ q = = U *.d d J  .S Y @.X.O : X.T ~ ~ q z = = q $ 1 . # G k 3 F W O O 6 Q 4 4 4 4 4 4 4 ",
"    % o * . 1 . $ $ $ ; 2 + + 2 ; $ $ ; 2 + + i ; , , d S V V K f % % f K D V ~ H + + 2 ; $ s y g 5 0 3 >     W Q 4 4 4 4 4 4 4 ",
"      o < . 1 . $ $ $ ; 2 + + 2 ; $ $ ; 2 + + 2 ; $ $ d Y V V K f % % f [ D D ~ H + + 2 ; $ s y g 5 5 k j % % ' Q 4 4 4 4 4 4 4 ",
"      O 8 # p # 1 . 1 $ w X X w u x x u w X X w $ 1 1 u @.K K ;.v N N v -.[ K T +.= = q d u , x b a a G f M & M %.E E E L L L L ",
"      % ) g g G O 6 o 6 & & M f ..g g ..f M & & 6 o o 6 f f f v { J J { v f f X.n r . . < * * * 8 7 7 * C X X C x t t p . Z Z Z ",
"      > 3 5 5 k >       % % % j k 5 5 k j % % %         % % % N J } } J N % % : 8 # p # # # # # # # # r = + + = r # # < , $ $ $ ",
"      > k 5 5 k >             > 3 5 5 3 >               % % % 6 J } } J N % % O @ * # # # # # # # # # r = + + = r # # < , $ $ $ ",
"O O O : j b b j O 6 o o o o 6 O ) a a g j > > % : O O o & & & =.; ] ] P B : O N 9 @ @ @ @ @ @ @ @ @ 8 < C X X C < 8 @ t Z , , , ",
"@ @ 8 < Y q q C $ 1 . . . . . y 8 7 7 ^ g 3 3 g m @ 8 < C X X w Z n n < 7 9 9 l N O O O O O O O O O O o & & & & o O O h t < * * ",
"# # # r i + + 2 ; $ $ $ $ $ $ , < # * 7 a 5 5 a 7 * # r = + + = . p # # t e t 9 O %                     % % % %     % O @ # # # ",
"# # # r = + + 2 ; , $ $ $ $ $ , < # * 7 a 5 5 a 7 * # r = + + = r # # # t e t 9 : %     % % % % % % % %             % O @ * # # ",
"7 7 7 * C X X D :.; ; P r 1 . y e @ @ m g 3 3 g m @ 8 n D z z D n 8 @ @ 7 9 9 m h o o 6 & & & & & & & & 6 o o o o o o h 9 @ @ @ ",
"a a a G f M & L D 2 2 V Q o o o O O O : % > > % : O O h t < < t h O O O O O : h < . 1 $ w X X X X X X w $ 1 . . . . . < h O O O ",
"0 0 5 k j % > & X + + X & %                         % : l 7 7 l : %         % o . s $ ; 2 + + + + + + 2 ; $ $ $ $ $ s . o %     ",
"0 0 0 3 >   % & X + + X & %                           : m 7 7 m :             6 . $ $ ; 2 + - + + + + 2 ; $ $ $ $ s s . 6       ",
"3 3 3 F W O : A w = = w A : O O         O O O O : : : 6 | m m | :       > > > O y , u d q = = z X X X w $ 1 . 1 y y y # o       ",
"> > > W c @ @ e 1 . . 1 e @ @ c O     O c @ @ 8 l l l ( 6 : : :       > F 3 3 ) 8 < * < . . r x v & & & 6 o 6 O G g g G %       ",
"      O @ * # # # p p # # # * @ O     O @ * # p 7 9 9 l :             > 3 0 5 a 7 # # # # p # 8 : % % %       > k 5 5 k >       ",
"% % % : 8 # p # # # # # # # # @ O % % O 8 # # p 9 c 9 ^ : %           > k 5 5 a 9 # # # # # # 8 O %     % % % j 3 0 0 3 >       ",
"& & & v x r . . < * * * # # # e f o o B n r . . < * * e f o o o O O O : G g g b * r . . . . r n B o o 6 & & M h I 3 3 F j > > > ",
"X X X X z = = q d u , Z * # # * 1 . 1 $ q = = = z z z ~ $ 1 . y e @ @ e x y x , q = = = = = = q $ 1 1 $ w X X ! f > % j F 3 3 3 ",
"+ + + + + - + 2 ; $ $ , * # # * , $ $ ; 2 + - + + + + 2 ; $ $ , < # # < , s $ ; 2 + - - - - + 2 ; $ $ ; 2 + R X M   ' % 3 0 0 0 ",
"- - - - - - + 2 ; $ $ , < # # < , $ $ ; 2 + - - - - + 2 ; $ $ , < # # < , s $ ; 2 + + + + + + 2 ; $ $ ; 2 + R X M   ' % 3 5 0 0 ",
"= = = = = = = q d u , Z t @ @ e r u Z / q = = = = = = q $ 1 . y e @ @ e x y x u w X X X X X X V / u u / V X X S Q 6 6 O ) a a a ",
". . . . . . . . < * < t h O O N c 8 8 e 1 . . . . . r n B o o o O O O : G g g ..f M & & & & & A t < < t A & & v n . . y 8 7 7 7 ",
"# # # # # # p # # # # @ O % % : l 9 9 7 p # # # # # # 8 O %           > k 5 5 k j % % % % % % : @ # # @ : % % o . s $ , < # # # ",
"# # # # # p # # # # # 8 O %   : l 9 9 7 p # # # # # # @ O %           > k 5 5 k j % % %     % O 8 # # 8 : % % o 1 $ $ u * p # # ",
"* * * < . . . . . . r n h : : 6 ( l l l 8 @ @ @ p # # @ h O O O o o 6 O j b b > B M & & 6 o o B n r r x v & & Q s ; ; P Z . . . ",
", , u d q = = = = = = D e ^ l ( 6 : : : O O O N 7 t e e @ @ @ e y . 1 $ C q q q U X X w $ 1 1 $ q = = z X X X X = i i i = = = = ",
"$ $ $ ; 2 + - - - - + z * 9 9 l :           % O 9 e e e # # # < , $ $ ; 2 + + + + + + 2 ; $ $ ; 2 + - + + + + + - - - - - - - - ",
"$ $ $ ; 2 + + + + + + = * 9 7 l :           % O 9 t e t # # # * , $ $ ; i + - - - - + 2 ; $ $ ; 2 + + + + + + + - - - - - - - - ",
", , u / V X X X X X X _ 8 ( | L :       : O : N l 9 9 7 p # # * 1 . 1 $ U i i i = = = q $ 1 1 $ w X X X X X X o.H - - H 2 i i i ",
"* * < t A & & & & & M f ) I I g %     : ^ 9 9 l N O O N @ # # e f o o & $ ; ; P Z . r n B o o 6 & & & & & & & L o.+ - 2 ] ; ; ; ",
"# # # @ : % % % % % % j 3 0 0 3 >     O 9 e e 9 : % % O @ # # @ O % % o 1 $ $ u * p # 8 O %     % % % % % % > & X + - i ; , $ $ ",
"# # # @ O %     % % % j 3 0 0 3 >   % : c @ @ c : % % : @ * * @ O     6 . s $ , * p # 8 : % % % % % % %     % & X R + 2 ; $ $ $ ",
"* * < t f o o 6 & & M h I 3 3 F : 6 o f # x x * v & & A 7 @ @ c W > > : * . . . . . r x v & & & f f f f 6 o o v S X X w $ 1 . . ",
", , , u . 1 1 $ w X X ! h j > : * . 1 $ q = z z X X X S A : O W F 3 3 F : 6 o v w = = z X X X q K O.O.&.u 1 . n v & & & 6 o o o ",
"$ $ $ $ $ $ $ ; 2 + R X M %   6 . s $ ; 2 + + + + + R X & %   > 3 0 0 3 >   % & X + - + + + + H V _ C ! d $ s . o % % %         ",
"s s s $ $ $ $ ; 2 + + X & % % o . s $ ; 2 + + + + + + X & %   > k 5 5 k j % > & X + - - - - + #.w _ C T d , $ 1 o % % %         ",
"y y y y u , u d q = = w A : O h < . 1 $ w X X X z z = C v o 6 O j b b > B M & L w = = = i i i z S T T K J d d , Q & & B   > > > ",
"g g g b @ < * < . . . 1 e @ @ 9 h o o 6 & & & A t * * < 1 . 1 $ C q q q U X X w $ . . Z P ; ; ; d d d J T Y Y _ U X X T j k 3 3 ",
"5 5 5 a 7 # # # # p p # # # * @ O %     % % % : ^ 9 c 8 u s $ ; 2 + + + + + + = . p p * u $ $ $ $ $ , d Y D V ~ H + R q b 5 0 0 ",
"0 0 5 a 7 * # # # # # # # # * @ O %           : l 9 9 8 u s $ ; i + - - - - - = r # # < , $ $ $ $ $ $ P _ D D ~ H + R q b 5 0 0 ",
"a a a ` m @ @ @ @ @ @ @ @ @ @ 9 h o o o O O O 6 ( l l c y . 1 $ U i i 2 H - + z x 8 @ e y . . . . . 1 u $.[ K  .q X X T   I a a ",
"7 7 7 m N O O O O O O O O O O h < . . y 8 9 9 l 6 : : O o o o & $ ; ; ] 2 - + X v : O O o o o o o o o 6 f B B B & & & A c 7 7 7 ",
"# # * @ O %                 % o . s $ , p e t 9 O           % o 1 $ , ; i - + X & %                     % % % % % % % : @ * # # ",
"# # # @ : % % %         % % % o . $ $ u p e t 7 O %           6 . s $ ; 2 + R X M %                             % % % : 8 # # # ",
"* * < t A & & & 6 o o 6 & & & v . , , r 7 m m ^ N O O O       o < . 1 $ w X X ! h j > >         O O O O o o o 6 & & & v x r . . ",
", , u / V X X w $ 1 1 $ w X X w . * < @ ` I I ` m @ @ c O     ' o 6 o 6 & & M h I 3 3 F >     O c @ @ e y . 1 $ w X X X z = = = ",
"$ $ $ ; 2 + + 2 ; $ $ ; 2 + + = . p # 7 a 5 5 a 7 * * @ O               % % % j 3 0 0 3 >     O @ * # < , $ $ ; 2 + + + + - - - ",
"$ $ $ ; i + + i ; $ $ ; 2 + + = r # * 7 a 5 5 a 7 * * @ O                     > k 5 5 k j % % : @ # # * , $ $ ; 2 + + + + - - - ",
"$ $ $ P X i i X d u u / V X X C < 8 @ m ` a a ` m @ @ c O       O O O O o o 6 O j b b > B M & A e # # * 1 . 1 $ w X X X z = = = ",
"$ $ $ s P ; ; d n * < t A & & & o O O N m 7 7 m N O O O       O c @ @ e y . 1 $ C q q q U X X w 1 # # e f o o 6 & & & v x r . . ",
"$ $ $ $ $ $ $ u * # # @ : % % %     % O @ * * @ O %           O @ * # < , $ $ ; 2 + + + + + + = . p # @ O %     % % % : 8 # # # ",
"$ $ $ $ $ s s , < # * @ O             O 8 # # 8 : % % %     % O @ * # < , $ $ ; i + - - + + + i r # * @ O           % O @ # # # ",
". . . 1 y y y x e @ @ c O       > > > : < r r x v & & & 6 o o h 9 @ @ t Z , u d X i i = U q q Y < 8 @ c O       O O O h t < * * ",
"o o 6 O G g g G : O O O       > F 3 k j Y i = z X X X w $ 1 . < h O O h t < * n d ; ; , : b b j : O O O       O c @ @ t Z , , , ",
"      > k 5 5 k >             > 3 0 5 b q + - + + + + 2 ; $ s . o % % O @ # # * u $ $ x g 5 5 k >             O @ * # < , $ $ $ ",
"      > 3 0 0 3 >             > 3 0 5 b q + - - - - - i ; $ $ . o     O @ # # * , $ s y g 5 0 3 >             O @ # # * , $ $ $ ",
"      > 3 0 0 3 >             > 3 0 5 b q + - - - - - i ; $ $ . o     O @ # # * , $ s y g 5 0 3 >             O @ # # * , $ $ $ "
};
