/* XPM */
static char *ecbd84aa9cea4bbedb7e0321d555dfc7bQ5lr9S4omz5O8zc[] = {
/* columns rows colors chars-per-pixel */
"64 64 160 2 ",
"   c #9B5643",
".  c #896961",
"X  c #AE614C",
"o  c #7E4A3C",
"O  c #8F503F",
"+  c #A2867D",
"@  c #9E5744",
"#  c #8B6E67",
"$  c #B1624D",
"%  c #7C4536",
"&  c #975442",
"*  c #C66851",
"=  c #A2877E",
"-  c #804737",
";  c #7E4637",
":  c #9A5543",
">  c #A9948D",
",  c #8D4F3E",
"<  c #7B4435",
"1  c #A3887F",
"2  c #9D7E74",
"3  c #AF614C",
"4  c #784739",
"5  c #804C3E",
"6  c #90513F",
"7  c #9E7F75",
"8  c #8E716A",
"9  c #733F31",
"0  c #A9958E",
"q  c #8B6B62",
"w  c #733E30",
"e  c #8F5344",
"r  c #9D5744",
"t  c #8D6B63",
"y  c #A48278",
"u  c #C76851",
"i  c #926D64",
"p  c #995947",
"a  c #8C4E3D",
"s  c #A18177",
"d  c #915140",
"f  c #985442",
"g  c #AF6652",
"h  c #7C4535",
"j  c #A9938C",
"k  c #8F6C64",
"l  c #9E8077",
"z  c #935240",
"x  c #7F4737",
"c  c #AC5F4B",
"v  c #995542",
"b  c #B06854",
"n  c #A8928B",
"m  c #A08076",
"M  c #A0847B",
"N  c #9C5B49",
"B  c #743F31",
"V  c #9F847B",
"C  c #723E30",
"Z  c #915646",
"A  c #965341",
"S  c #C0654F",
"D  c #C26B56",
"F  c #BF6954",
"G  c #A2867E",
"H  c #7A493B",
"J  c #A05845",
"K  c #9F837A",
"L  c #C1664F",
"P  c #C46751",
"I  c #744032",
"U  c #804738",
"Y  c #975441",
"T  c #A68378",
"R  c #79483A",
"E  c #AD604B",
"W  c #774233",
"Q  c #9B7C72",
"!  c #8D716A",
"~  c #9F7E74",
"^  c #844939",
"/  c #BE644E",
"(  c #AA8E86",
")  c #AD6350",
"_  c #9B5642",
"`  c #A18076",
"'  c #A48B84",
"]  c #8B6A62",
"[  c #B16653",
"{  c #8C6C64",
"}  c #955341",
"|  c #A98D84",
" . c #764133",
".. c #9C5744",
"X. c #7C4435",
"o. c #824E3F",
"O. c #7D493B",
"+. c #A8938C",
"@. c #A38A82",
"#. c #9B5A48",
"$. c #8D6C63",
"%. c #AF604B",
"&. c #926F66",
"*. c #9D5C4A",
"=. c #BC6853",
"-. c #A3877E",
";. c #A28981",
":. c #A38A83",
">. c #B4624D",
",. c #764132",
"<. c #8D5243",
"1. c #8E503F",
"2. c #B4634D",
"3. c #784639",
"4. c #7E5043",
"5. c #764032",
"6. c #804B3C",
"7. c #8E7069",
"8. c #995847",
"9. c #A38076",
"0. c #744031",
"q. c #A8918A",
"w. c #814838",
"e. c #AE6450",
"r. c #9E5D4B",
"t. c #947067",
"y. c #A28278",
"u. c #8A6E67",
"i. c #AA624F",
"p. c #9F5744",
"a. c #7F4C3E",
"s. c #A48379",
"d. c #886961",
"f. c #AE6653",
"g. c #8F5444",
"h. c #90503F",
"j. c #C06953",
"k. c #A9948E",
"l. c #A79089",
"z. c #8E5545",
"x. c #B1614C",
"c. c #A17F75",
"v. c #874A3A",
"b. c #9A5E4D",
"n. c #764437",
"m. c #AB624F",
"M. c #9C7C73",
"N. c #8F6E65",
"B. c #7D4E42",
"V. c #965746",
"C. c #C06853",
"Z. c #BC6C58",
"A. c #764537",
"S. c #885041",
"D. c #8A4D3C",
"F. c #8C5242",
"G. c #855446",
"H. c #8C6E67",
"J. c #B96956",
"K. c #B86551",
/* pixels */
"$ $ $ $ $ $ $ X @     p t # # i F * * * * * * * * * * P 2.$ $ $ $ $ $ $ $ $ $ X @     N s + + T D * * P 2.$ $ $ $ $ $ $ $ $ $ $ ",
"$ $ $ $ $ $ $ X @     p t # # i F * * * * * * * * * * P 2.$ $ $ $ $ $ $ $ $ $ X @     N s + + T D * * P 2.$ $ $ $ $ $ $ $ $ $ $ ",
"$ $ $ $ $ $ $ 3 @     p t # u.i j.u u u * * * * * * u P 2.$ $ $ $ $ $ $ $ $ $ 3 @     *.s + + T D u u P 2.$ $ $ $ $ $ $ $ $ $ $ ",
"X X X X X X 3 c ..v : 8.N.8 ! &.K./ / / S S S S L L L S x.X X X X X X X X X 3 c ..v : N ` + + y =./ / / 3 X X X X X X X X X X X ",
"@ @ @ @ @ @ @ ..d 6 h.Z 2 V M M.S.^ ^ v.z } } A p.J J J @ r @ @ @ @ @ @ @ @ @ ..d 6 h.Z m + G 7 S.^ ^ v.  @ @ @ @ @ @ @ @ @ @ @ ",
"              v 6 O O Z m = = 7 5 < % ; , O 1.6 v                             v 6 O O Z m + = 7 5 < % x Y                       ",
"              : d O O Z m + + 7 5 h % ; , O O d :                             : d O O Z m + = 7 5 h % U f                       ",
"& & & Y A A A } , a a z.s 1 1 l 5 < < % D.a a , f : : : : : : v f & & Y A A A } , a a g.m + = 7 a.< < ; A : : v f & & & & & & & ",
"- - U ; W W W W  . .5.o ;.j j ;.H B I I ,. .,.W , d 6 6 6 6 6 1.w.x U ; W W W W  . .5.H 2 = = 2 R B 0.W , d 6 1.w.x - - - - - - ",
"% % % < 0.9 9 9 9 9 C H :.0 0 :.H w 9 9 9 9 9 ,.a O O O O O O , ; % % < 0.9 9 9 9 9 C 4 2 = = 2 4 w 9  .a O O , ; % % % % % % % ",
"% % % < B 9 9 9 w w C R @.0 0 @.R C w w 9 9 w ,.a O O O O O O , ; % % < B w w w w w C 4 2 + + 2 4 C C 5.a O O , ; % % % % % % % ",
"o o o O.A.n.n.A.4 4 3.4.' 0 0 ' 4.3.4 4 A.n.n.3.F.g.e e e e e <.6.o o O.4 4 4 4 4 4 4 B.l 1 1 l B.4 4 H F.g.e <.6.o o o o o o o ",
". . . . d.d.d.q Q 2 2 l q.> > q.l 2 2 Q q d.d.. ] q q q q q q ] . . . { Q 2 2 2 2 2 2 l l.+.+.l.l 2 2 Q $.] q ] . . . . . . . . ",
"# # # # # # # 8 M -.+ 1 n > > n 1 + -.M 8 # # # # # # # # # # # # # # 8 M -.= = = = + 1 +.> > +.1 + -.M 8 # # # # # # # # # # # ",
"# # # # # # u.! V G + 1 +.0 k.+.1 + = V ! # # # # # # # # # # # # # u.! V G + + + + + 1 +.0 k.+.1 + = V ! # # # # # # # # # # # ",
"i i i i i i i t.` y y s.| ( ( | y.` s ~ &.k k k t t t $.7.8 8 7.N.i i t.` y y y y y y s.| ( ( | y.` s ~ &.k k k t t t $.# # # # ",
"F F F F F F F =.[ g g g b b b f.r.N N *.m.) ) i.#.p 8.b.~ V K 9.Z.C.F =.[ g g g g g g g b b b f.r.N N *.m.) ) i.#.p p #.$.# # # ",
"* * * * * * u P >.$ $ $ $ $ $ %.r _ _ r 3 $ $ 3 @   : N s = G T D u u P >.$ $ $ $ $ $ $ $ $ $ %.r _ _ r 3 $ $ 3 @   _ p t # # # ",
"u u u u * * u P 2.$ $ $ $ $ $ 3 @     @ 3 $ $ 3 @     *.s + + T D u u P 2.$ $ $ $ $ $ $ $ $ $ 3 @     @ 3 $ $ 3 @     p t # # # ",
"/ / / / L L L S x.X X X X X 3 c r     r c E E c : Y Y p ` + + y =./ / / %.E E E E E E E E E E c ..v v ..c E E c : Y f V.N.8 8 8 ",
"^ ^ ^ v.r J J J @ r @ @ @ @ @ r         } z z d w.x ; o.7 G G 7 S.^ ^ v.d z z z z z z z z z z z d 6 6 d z z z d w.x ; o.M.M K K ",
"% % % x Y                             : 6 O O , ; % < 5 7 = = 7 5 < % ; , O O O O O O O O O O O O O O O O O O , ; % < 5 7 = + + ",
"% % % - f                             : d O O , ; % h 5 7 + + 7 5 h % ; , O O O O O O O O O O O O O O O O O O , ; % h 5 7 = + + ",
"% % % x A : : :         f & & & & & f A , , , a ; < < 5 l 1 1 l 5 < < % D.a a a , , , , O O O O O O O O , , , a ; < < a.7 = + + ",
"% % % ; , d 6 d :     f ^ x - - - - - x ; ; ; ; I I B H ;.j j ;.H B I I ,. . .W ; ; ; U , O O O O O O , U ; ; ; I I B R 2 = + + ",
"% % % ; , O O 6 :     & x % % % % % % % % % % < I 9 w H :.0 0 :.H w 9 9 9 9 9 0.< % % ; , O O O O O O , ; % % < I 9 w 4 2 = + + ",
"X.X.X.; a O O h.:     f x % % % % % % % h X.h < B w C R @.0 0 @.R C w w w w w B < % % ; , O O O O O O , ; % % < B w C 4 2 + + + ",
"5 5 5 o.<.e e g.8.p p V.6.o o o o o o o 5 5 5 a.R 4 3.4.' 0 0 ' 4.3.4 4 4 4 4 4 O.o o 6.<.e e e e e e <.6.o o O.4 4 4 B.l 1 1 1 ",
"7 7 7 M.N.] q q t t t t ] . . . . . . { Q 7 7 7 2 2 2 l q.> > q.l 2 2 2 2 2 2 Q { . . . ] q q q q q q ] . . . { Q 2 2 l l.+.n n ",
"= = = M 8 # # # # # # # # # # # # # # 8 M = = = = = + 1 n > > n 1 + = = = = -.M 8 # # # # # # # # # # # # # # 8 M -.+ 1 +.> > > ",
"+ + G V ! # # # # # # # # # # # # # u.! K G + + + + + 1 +.0 k.+.1 + + + + + G V ! # # # # # # # # # # # # # u.! V G + 1 +.0 > > ",
"y y y c.&.k k k t t t $.7.8 8 7.N.i i t.9.T T T T T T T | ( ( | y.` s s y.y y c.N.t t $.7.8 8 7.N.i i i i i i t.` y y s.| ( ( ( ",
"g g g g e.) ) i.#.p 8.b.~ V K 9.Z.C.F j.D D D D D D D D b b b f.r.N N r.e.g g e.#.p 8.b.~ V K 9.Z.C.F F F F F =.[ g g g b b b b ",
"$ $ $ $ $ $ $ 3 @   : N s = G T D u * * * * * * * * * P >.$ $ %.r _ _ r %.$ $ %.@   : N s = G T D u * * * * u P >.$ $ $ $ $ $ $ ",
"$ $ $ $ $ $ $ 3 @     *.s + + T D u * * * * * * * * u P 2.$ $ 3 @     @ 3 $ $ 3 @     *.s + + T D u * * * * u P 2.$ $ $ $ $ $ $ ",
"X X X X X X 3 c ..v : N ` + + y =.S S S L L L L L L L S x.X 3 c r     r c 3 3 c : Y Y p ` + + y =.S S S L L L S x.X X X X X X X ",
"@ @ @ @ @ @ @ ..d 6 h.Z m + + ` p } } A p.J J J J J J J @ r @ r         r @ @ : ^ x ; o.7 G + ` p } } A p.J J J @ r @ @ @ @ @ @ ",
"              v 6 O O Z m + + m Z , 1.6 v                                     Y x % < 5 7 = + m Z , 1.6 v                       ",
"              : d O O Z m + + m Z O O d :                                     f U % h 5 7 + + m Z O O d :                       ",
"& & & & & & f A , a a g.m + + m z.a , , A f & f v : : : : : : v f & & & & & f z ; < < 5 l 1 1 s z.a , , v : : : : : : : : : : : ",
"- - - - - - U ; W  .5.H 2 = G 7 o.; ; ; x - x w.1.6 6 6 6 6 6 1.w.x - - - - U ; ,.I B H ;.j j @.o.; ; U , d 6 6 6 6 6 6 6 6 6 6 ",
"% % % % % % % < 0.9 C 4 2 = = 7 5 X.% % % % % ; , O O O O O O , ; % % % % % % < I 9 w H :.0 0 ' o.< % ; , O O O O O O O O O O O ",
"% % % % h X.h < B w C 4 2 + + 2 5 < X.h % % % ; , O O O O O O , ; % % % % % % < B w C R @.0 0 ' o.< X.; a O O O O O O O O O O O ",
"o o o o 5 5 5 a.R 4 4 B.l 1 1 s G.5 5 5 o o o 6.<.e e e e e e <.6.o o o o o o O.4 4 3.4.' 0 0 ' G.5 5 o.<.e e e e e e e e e e e ",
". . . { Q 7 7 7 2 2 2 l l.+.+.l.s 2 7 Q { . . . ] q q q q q q ] . . . . . . . { Q 2 2 l q.> > n s 2 7 M.N.] q q q q q q q q q q ",
"# # # 8 M = = = = = + 1 +.> > +.1 + = M 8 # # # # # # # # # # # # # # # # # # 8 M -.+ 1 n > > n 1 + = M 8 # # # # # # # # # # # ",
"# # # ! V G + + + + + 1 +.0 k.+.1 + = V ! # # # # # # # # # # # # # # # # # # ! V G + 1 +.0 k.+.1 + = V ! # # # # # # # # # # # ",
"t t t N.c.y y y y y y s.| ( ( | y.` s ~ &.k k k t t t $.# # # H.i i i i i k k &.c.y y s.| ( ( | y.` s ~ &.k k k t t t $.7.8 8 8 ",
"p p p #.e.g g g g g g g b b b f.r.N N *.m.) ) i.#.p p #.$.# # i J.j.F =.e.) ) e.g g g g b b b f.r.N N *.m.) ) i.#.p 8.b.~ V K K ",
"      @ %.$ $ $ $ $ $ $ $ $ $ %.r _ _ r 3 $ $ 3 @   _ p t # # i j.u u P 2.$ $ $ $ $ $ $ $ $ $ %.r _ _ r 3 $ $ 3 @   : N s = + + ",
"      @ 3 $ $ $ $ $ $ $ $ $ $ 3 @     @ 3 $ $ 3 @     p t # u.i j.u u P 2.$ $ $ $ $ $ $ $ $ $ 3 @     @ 3 $ $ 3 @     *.s + + + ",
"& & Y : c 3 X X X X X X X X 3 c r     r c 3 3 c ..v : 8.N.8 ! &.=.S S / 3 X X X X X X X X X 3 c r     r c 3 3 c : Y Y p ` + + + ",
"- - x ^ : @ @ @ @ @ @ @ @ @ @ r         r @ @ ..d 6 h.Z 2 V V 2 V.} } A r @ @ @ @ @ @ @ @ @ @ r         r @ @ : ^ x ; o.7 G + + ",
"% % % x Y                                     v 6 O O Z m = = m Z , 1.6 v                                     Y x % < 5 7 = + + ",
"% % % U f                                     : d O O Z m + + m Z O O d :                                     f U % h 5 7 + + + ",
"< < < ; z f & & & & & & & & & & & & & & & & f A , a a z.s 1 1 s z.a a , A f & & & & & & & & & & & & & & & & f z ; < < 5 l 1 1 1 ",
"I I I ,.; U - - - - - - - - - - - - - - - - U ; W  .5.o ;.j j ;.o 5. .W ; U - - - - - - - - - - - - - - - - U ; ,.I B H ;.j n n ",
"9 9 9 I < % % % % % % % % % % % % % % % % % % < 0.9 C H :.0 0 :.H C 9 0.< % % % % % % % % % % % % % % % % % % < I 9 w H :.0 > > ",
"w w w B < % % % % % % % % % % % % % % % % % % < B w C R @.0 0 @.R C w B < h X.h % % % % % % % % % % % % h X.h < B w C R @.0 > > ",
"4 4 4 4 O.o o o o o o o o o o o o o o o o o o O.4 4 3.4.' 0 0 ' 4.3.4 R a.5 5 5 o o o o o o o o o o o o 5 5 5 5 H H R 4.' 0 > > ",
"2 2 2 Q { . . . . . . . . . . . . . . . . . . { Q 2 2 l q.> > q.l 2 2 2 7 7 7 Q { . . . . . . . . . . { Q 7 7 l ;.:.@.' +.> > > ",
"= = -.M 8 # # # # # # # # # # # # # # # # # # 8 M -.+ 1 n > > n 1 + = = = = = M 8 # # # # # # # # # # 8 M = + 1 j 0 0 0 > > > > ",
"+ + + K 8 # # # # # # # # # # # # # # # # # # 8 K + + 1 n > > n 1 + + + + + + K 8 # # # # # # # # # # 8 K + + 1 n > > > > > > > ",
"+ + + K 8 # # # # # # # # # # # # # # # # # # 8 K + + 1 n > > n 1 + + + + + + K 8 # # # # # # # # # # 8 K + + 1 n > > > > > > > "
};
